<svg xmlns="http://www.w3.org/2000/svg" xmlns:xlink="http://www.w3.org/1999/xlink" viewBox="0 0 843.14 314.03"><defs><style>.cls-1{fill:none;}.cls-2{opacity:0.8;fill:url(#New_Gradient_3);}.cls-3{fill:#00428b;}.cls-4{fill:#fc0;}.cls-5{fill:#e30613;}.cls-6{clip-path:url(#clip-path);}.cls-7,.cls-8{fill:#fff;}.cls-8{stroke:#000;stroke-miterlimit:10;stroke-width:6px;}.cls-9{clip-path:url(#clip-path-2);}.cls-10{clip-path:url(#clip-path-3);}.cls-11{fill:url(#New_Gradient_3-2);}.cls-12{fill:#324f9e;}.cls-13{clip-path:url(#clip-path-4);}</style><linearGradient id="New_Gradient_3" x1="421.57" y1="2.41" x2="421.57" y2="240.36" gradientUnits="userSpaceOnUse"><stop offset="0" stop-color="#0098c4"/><stop offset="1" stop-color="#c9e3f0"/></linearGradient><clipPath id="clip-path"><path class="cls-1" d="M758.62,76.67q15.92-5.23,27.47-5.24A36.09,36.09,0,0,1,804.49,76a60.72,60.72,0,0,1,10.58,8.31A73.24,73.24,0,0,1,825.43,96.5a40.28,40.28,0,0,1,6,13q4.71,18.93,4.71,33.07a133.68,133.68,0,0,1-1,15.69q-1,8.22-3,21.11L795,181.57q.18-4.44.18-12.8,0-34.85-9.6-59.29-3.73-9.17-7.29-9.16-4.63,0-10.23,12.8a38.74,38.74,0,0,0-2.18,7.11,72.71,72.71,0,0,0-1.24,9q-.4,5-.4,11.74,0,13.68,1.6,34.75l-43.65,5.07a112,112,0,0,1-.89-12.09q-.27-6.93-.35-14.31t-.58-13.47q-.4-6.09-1.65-13.82L716.3,11.15l36.45-4.44Z"/></clipPath><clipPath id="clip-path-2"><path class="cls-1" d="M522,41.74A115.11,115.11,0,0,1,529,59,113.88,113.88,0,0,1,533,76.85a121.93,121.93,0,0,1,1.29,17.51,106,106,0,0,1-4.13,29.69,87.68,87.68,0,0,1-11.87,25.47,65.41,65.41,0,0,1-18.71,18.27,57.26,57.26,0,0,1-24.32,8.63L438.23,183,425.79,68.67q-.63,0-4.36,4.71t-4.36,4.71q-1.95-1.32-3.42-7.55t-4.18-19.38q-2.7-13.15-4-16Q426,28.49,444.1,24.36a152.33,152.33,0,0,1,33.78-4.14Q511.48,20.22,522,41.74ZM487,57.74q-7.38-2.58-11.74-2.58a19.72,19.72,0,0,0-11.64,4l4.44,80.9q15-6.5,20-12.85t6.09-10.53q.88-2,1.82-9.69A145.49,145.49,0,0,0,497,89.74a86.87,86.87,0,0,0-2.26-21.29Q492.47,59.6,487,57.74Z"/></clipPath><clipPath id="clip-path-3"><path class="cls-1" d="M718.17,111.61q-2.67-1-12.93-4.13T686.92,102q-8-2.31-17.73-4.45a75.48,75.48,0,0,0-15.11-2.13,8.74,8.74,0,0,0-4.36.89c-2.9,2.19-4.36,4.21-4.36,6q0,4.36,8.72,7.52a96.85,96.85,0,0,0,21.15,4.66q17.07,1.88,27.61,8t15.24,14.27a32.88,32.88,0,0,1,4.71,16.67,26.82,26.82,0,0,1-2.4,11.29q-10.3,21.87-39.55,21.87a107.77,107.77,0,0,1-18.05-1.73q-10-1.74-19.25-4.27t-19.6-5.91l-19.38-6.32q2.31-4.8,5.87-11.6t6.89-13.29q3.33-6.48,3.33-7.11a19.51,19.51,0,0,0,6.45,3.87q3.85,1.47,11.29,3.47a100.83,100.83,0,0,1,11.33,3.6,51,51,0,0,0,17.87,3.2,47.64,47.64,0,0,0,10.84-1.2q5.16-1.2,5.52-2,0-2.31-7.87-4.58a118.19,118.19,0,0,0-17.56-3.51,94.44,94.44,0,0,1-22.18-5.38,50.83,50.83,0,0,1-19-12.14A27.14,27.14,0,0,1,609.54,102a44.59,44.59,0,0,1,4.53-18.76A31.65,31.65,0,0,1,629,67.38q9.94-4.93,23.82-4.93a127.7,127.7,0,0,1,33,4.53q17,4.53,46.23,14c-.42.89-2,4.67-4.89,11.33s-5,11.55-6.4,14.63S718.47,111.61,718.17,111.61Z"/></clipPath><linearGradient id="New_Gradient_3-2" x1="-154.51" y1="-208.48" x2="-154.51" y2="-126.48" gradientTransform="translate(676.2 439.12) scale(1.2)" xlink:href="#New_Gradient_3"/><clipPath id="clip-path-4"><path class="cls-1" d="M587.14,76.67,624.3,60l.71,49.69a70.16,70.16,0,0,1,.71,10.49,58.71,58.71,0,0,1-.36,7.65l1.07,54.49-40,2.14V179a51.6,51.6,0,0,1-19.73,4,43.85,43.85,0,0,1-14.36-2.31,38.37,38.37,0,0,1-11.6-6.22,43.53,43.53,0,0,1-12.36-17.74,63.19,63.19,0,0,1-4.44-23.6q0-21.42,12.36-34.58a82.56,82.56,0,0,1,22-17,50.45,50.45,0,0,1,23.16-5.78c2.19,0,3.85.06,5,.18Zm-.72,15.65a28.38,28.38,0,0,0-9.64,3.11,33.12,33.12,0,0,0-8.13,5.87,26.13,26.13,0,0,0-5.29,7.42,18.48,18.48,0,0,0-1.92,8q0,8.08,7.65,13.15a24.3,24.3,0,0,0,13.69,4.54,25.06,25.06,0,0,0,3.64-.36V115.08a7.51,7.51,0,0,1-4.26-1.25q-2.67-2.13-2.67-8.18Q579.49,96.95,586.42,92.32Z"/></clipPath></defs><g id="Camada_2" data-name="Camada 2"><g id="Camada_1-2" data-name="Camada 1"><path class="cls-2" d="M838.12,114.91a51.22,51.22,0,0,0-7.57-16.56,84.11,84.11,0,0,0-11.92-14.06A70.32,70.32,0,0,0,806,74.44a47.08,47.08,0,0,0-23.92-6,83.21,83.21,0,0,0-17.62,2.11L758.76,2.41l-57.66,7,1.24,60c-6.71-2-12.62-3.71-17.69-5.07a139.46,139.46,0,0,0-35.82-4.9,72.84,72.84,0,0,0-17.62,2.06l-.15-10.45L582.45,72.92c-1.36-.09-3-.14-5-.14a61.57,61.57,0,0,0-28.16,7,78.29,78.29,0,0,0-9.11,5.48c-.09-.66-.16-1.32-.25-2a128.06,128.06,0,0,0-12.07-38.36c-9-18.37-27.12-27.69-54-27.69a164.66,164.66,0,0,0-36.23,4.41C425.3,24.45,412,28.17,398,32.69l-11.85,3.85,5.25,11.2c0,.09,1,2.42,3.27,13.64,1.82,8.81,3.24,15.44,4.25,19.68,0,.12.05.23.08.35l-.11,0a75.14,75.14,0,0,0-25.14-4.23c-1.34,0-2.68,0-4,.11l19.23-13L357.12,8.6,306.3,73.85l12,20.61-24.74-3.7-25.26,13.83L261.8,3.75,197,30.92l-8.56,42.94a63.3,63.3,0,0,0-11.66-1.08A61.68,61.68,0,0,0,148.7,79.7a88,88,0,0,0-21.57,15.9q3.81-4.65,7.57-9.68c8.8-11.78,13.08-22,13.08-31.12a23.46,23.46,0,0,0-2.05-9.62,46.39,46.39,0,0,0-9-13.32A44.9,44.9,0,0,0,124,22.75a58.43,58.43,0,0,0-14.26-4.65c-2.31-.41-6.53-.88-18.81-.88A101.49,101.49,0,0,0,74,18.62c-6.69,1.11-13.77,2.63-21,4.51S38.88,27,32.4,29c-6.3,2-13.14,4.24-20.33,6.62L0,39.64,5.68,51c.14.26.94,2,3.66,9.33q3,8.26,5.48,15c1.64,4.58,3,8.23,4,10.84,1.66,4.34,4.18,10.88,12,10.88H35l39.8,113.67,41.5-29.94-16.25-56.95c3.2-3,7.12-6.77,11.68-11.28,2.27-2.24,4.54-4.62,6.81-7.09-6.71,9.8-10.11,21.74-10.11,35.62a74.53,74.53,0,0,0,5.22,27.67A54.34,54.34,0,0,0,129.29,191l.11.09a49.8,49.8,0,0,0,14.85,8,54.74,54.74,0,0,0,18,3,61.3,61.3,0,0,0,15.75-2.1,69.41,69.41,0,0,0,15.71-6.43A76.33,76.33,0,0,0,209,182.1c.59-.56,1.17-1.12,1.75-1.7l2.22,42.95,64.32-1.22L275.61,190l70.09,50.38-2.34-39.05a86.36,86.36,0,0,0,12.38.86,112.71,112.71,0,0,0,29.41-4,92.79,92.79,0,0,0,26-11.2,48.41,48.41,0,0,0,10.58-9l2.82,25.88,48.36-8.58a68.3,68.3,0,0,0,28.61-10.24A74.83,74.83,0,0,0,516,173a52.82,52.82,0,0,0,13.65,17.91l.2.17a49.63,49.63,0,0,0,14.89,8,55.12,55.12,0,0,0,17.94,2.9,60.93,60.93,0,0,0,8.73-.63V204l62.21-3.31,0-2.31,3,.85c6.45,1.78,13.28,3.29,20.3,4.5a118.28,118.28,0,0,0,19.92,1.9c12.52,0,23-2.61,31.49-7.74l.42,3,64.84-7.53-.8-10.54c-1-13.7-1.57-25.11-1.57-33.92,0-4.18.12-7.83.36-10.86a60,60,0,0,1,1-7.59,31.25,31.25,0,0,1,.8-3.08c4.47,13.83,6.73,30.4,6.73,49.35,0,5.36-.06,9.52-.17,12.37l-.48,12.14,58.11-3.48,1.38-8.73c1.37-8.65,2.41-15.89,3.08-21.54a144.72,144.72,0,0,0,1.06-17C843.14,140.27,841.45,128.27,838.12,114.91ZM403.81,130.36l11.29-13.47,3.4,31.21Zm67.49-56.2c.72,0,2.86.18,7.55,1.77a12.06,12.06,0,0,1,1.22,3.25A76.23,76.23,0,0,1,482,97.74a133.94,133.94,0,0,1-.85,15.93,62.77,62.77,0,0,1-1.06,6.78l-.26.56-.24.95c0,.07-.53,2-4.06,6.43a11,11,0,0,1-1.4,1.43l-3.06-55.66ZM205.06,71.32l.43,8.39A70.4,70.4,0,0,0,193,74.9c-.6-.17-1.21-.32-1.82-.46Z"/><path class="cls-3" d="M789,181.33c.12-2.9.18-7.13.18-12.56,0-22.37-3.09-41.58-9.19-57.1a30.73,30.73,0,0,0-2-4.22,40.31,40.31,0,0,0-4.39,8.08,31.77,31.77,0,0,0-1.8,5.94,66.05,66.05,0,0,0-1.14,8.22c-.25,3.16-.38,6.95-.38,11.26,0,8.94.53,20.48,1.58,34.3l.44,5.75L717,187.41l-.8-5.82a118.46,118.46,0,0,1-1-12.75c-.17-4.61-.29-9.48-.35-14.4-.12-4.77-.31-9.22-.57-13.14s-.78-8.32-1.58-13.27l-.07-.41L710.19,5.86l48-5.86L764,68.79a85.94,85.94,0,0,1,22.11-3.36,42.07,42.07,0,0,1,21.41,5.34,65.78,65.78,0,0,1,11.7,9.15,79,79,0,0,1,11.2,13.22,46.46,46.46,0,0,1,6.86,14.94c3.23,13,4.88,24.6,4.88,34.47a139,139,0,0,1-1,16.39c-.67,5.59-1.7,12.77-3.06,21.35l-.75,4.76L788.72,188Z"/><path class="cls-3" d="M41.16,80.08c-1.34,1.47-1.83,2-2.1,2.25L37.3,84.09H34.82c-4.4,0-5.76-3.55-7.34-7.67-1-2.58-2.32-6.19-4-10.74S20.07,56.14,18,50.61c-2.57-7-3.53-9.15-3.87-9.84l-3.1-6.2,6.58-2.18c7.21-2.38,14-4.6,20.28-6.59S51.14,21.8,58.2,20s14.07-3.33,20.61-4.42a97.17,97.17,0,0,1,16.1-1.33c12,0,16,.46,17.94.81a52.31,52.31,0,0,1,13,4.23,39.85,39.85,0,0,1,11.29,8.1,41.34,41.34,0,0,1,8.07,11.89,18.45,18.45,0,0,1,1.6,7.55c0,8-3.95,17.24-12.08,28.13A231.55,231.55,0,0,1,112.24,101c-5.67,5.6-10.3,10-13.82,13.26l16.13,56.53-33.23,24Zm46.07-3q2.88-3.25,6.21-7.19a61.05,61.05,0,0,0,5.21-7c-.6,0-1.2,0-1.78,0A28.49,28.49,0,0,0,84,65.54Z"/><polygon class="cls-3" points="274.09 171.85 275.99 209.23 221.68 210.26 213.74 57.15 198.61 60.55 205.39 26.5 261.26 3.08 267.78 104.75 298.44 87.95 353 96.12 297.73 138.5 341.02 171.16 344.08 222.17 274.09 171.85"/><path class="cls-4" d="M19.52,38.09q10.77-3.56,20.23-6.58t20-5.73Q70.2,23.07,79.8,21.47a90.62,90.62,0,0,1,15.11-1.25q12.89,0,16.89.71a46.35,46.35,0,0,1,11.42,3.74,33.57,33.57,0,0,1,9.6,6.89,34.81,34.81,0,0,1,6.89,10.18,12.16,12.16,0,0,1,1.07,5.06q0,10-10.89,24.54A224.45,224.45,0,0,1,108,96.76q-11,10.84-16.4,15.56l16,56.09L84.33,185.22,43.53,68.67a9.06,9.06,0,0,0-1.69,1.69l-4,4.4q-2.45,2.71-3.06,3.33c-.18,0-.76-1.27-1.74-3.82s-2.28-6.09-3.91-10.62-3.47-9.57-5.51-15.11S20.24,39.51,19.52,38.09ZM77,62.8,84.33,89Q89.85,83.44,98,73.74t8.18-14a1.72,1.72,0,0,0-1.42-1.95,36.61,36.61,0,0,0-7.91-.89Q85.13,56.85,77,62.8Z"/><path class="cls-4" d="M210.65,30.8l45.16-18.93,6.58,102.67,37.16-20.35L338.13,100l-50.31,38.58,47.38,35.74,2.13,35.65L267.46,159.7l2.22,43.65-42.31.8-8-154.41L206.3,52.67Z"/><path class="cls-3" d="M359.74,189.17a71.34,71.34,0,0,1-22.86-3.43c-7.23-2.44-12.94-6.27-17-11.39-6.57-8.26-9.91-18.85-9.91-31.45a80.83,80.83,0,0,1,5.22-28.37C318.81,105,322.65,98.3,327,94.19A72.32,72.32,0,0,1,342.36,83a74.5,74.5,0,0,1,17.16-6.67,75.7,75.7,0,0,1,18.26-2.22,70.34,70.34,0,0,1,23.47,3.94,59.09,59.09,0,0,1,19.83,11.63l4.32,3.88-24.1,28.76,26.9,32.48L427.1,158c-2.16,6.25-7.09,11.9-14.64,16.77a87.64,87.64,0,0,1-24.62,10.57A107.49,107.49,0,0,1,359.74,189.17Zm4.79-75.81a17.25,17.25,0,0,0-4.93,1.35c-2.66,1.16-3.57,2.18-3.84,2.56l-.08.12-.09.12a19,19,0,0,0-4.26,12,1.48,1.48,0,0,0,0,.21Z"/><path class="cls-4" d="M400,130.19l21.42,25.87q-2.58,7.47-12.22,13.69a81.23,81.23,0,0,1-22.94,9.82,101.07,101.07,0,0,1-26.53,3.6,65.3,65.3,0,0,1-20.94-3.11q-9.19-3.1-14.18-9.42Q316,159.8,316,142.9a74.34,74.34,0,0,1,4.84-26.27q4.85-12.93,10.27-18.09A65.72,65.72,0,0,1,345.2,88.32,68.27,68.27,0,0,1,361,82.18a69.12,69.12,0,0,1,16.8-2,63.92,63.92,0,0,1,21.47,3.6,52.57,52.57,0,0,1,17.82,10.45l-48.8,58.22a28.75,28.75,0,0,0,12.31-2.71A36.37,36.37,0,0,0,391.29,142,57.26,57.26,0,0,0,400,130.19Zm-24.63-20.71a19.26,19.26,0,0,0-8.89-2.23,23.09,23.09,0,0,0-9.29,2,14.6,14.6,0,0,0-6.35,4.62,25,25,0,0,0-5.52,15.65,27.4,27.4,0,0,0,.63,6q.62,2.85,2.13,7.83Z"/><path class="cls-3" d="M421.26,82.54a6.35,6.35,0,0,1-4.19,1.55h-1.85l-1.52-1c-2.73-1.85-4.49-5.18-5.89-11.14-1-4.2-2.41-10.78-4.21-19.54-2.45-11.86-3.43-14.3-3.6-14.67l-2.89-6.15,6.47-2.1c13.8-4.48,27-8.16,39.19-10.94a158.78,158.78,0,0,1,35.11-4.29c24.78,0,41.43,8.37,49.49,24.89a123.64,123.64,0,0,1,7.31,18.12A121.09,121.09,0,0,1,539,76a128.35,128.35,0,0,1,1.35,18.37A112.4,112.4,0,0,1,536,125.73a93.84,93.84,0,0,1-12.69,27.19,71.68,71.68,0,0,1-20.42,19.93,63.3,63.3,0,0,1-26.66,9.5L433,190Zm52.34,48.23c5.71-3.09,8.49-5.57,9.84-7.28,3.68-4.66,4.7-7.2,5-8.3l.13-.51.22-.49c0-.09.57-1.59,1.33-7.92A139.6,139.6,0,0,0,491,89.74a81.84,81.84,0,0,0-2.07-19.8c-.55-2.13-1.78-5.82-3.84-6.53-5.33-1.86-8.26-2.25-9.78-2.25a12.59,12.59,0,0,0-5.45,1.27Z"/><path class="cls-5" d="M522,41.74A115.11,115.11,0,0,1,529,59,113.88,113.88,0,0,1,533,76.85a121.93,121.93,0,0,1,1.29,17.51,106,106,0,0,1-4.13,29.69,87.68,87.68,0,0,1-11.87,25.47,65.41,65.41,0,0,1-18.71,18.27,57.26,57.26,0,0,1-24.32,8.63L438.23,183,425.79,68.67q-.63,0-4.36,4.71t-4.36,4.71q-1.95-1.32-3.42-7.55t-4.18-19.38q-2.7-13.15-4-16Q426,28.49,444.1,24.36a152.33,152.33,0,0,1,33.78-4.14Q511.48,20.22,522,41.74ZM487,57.74q-7.38-2.58-11.74-2.58a19.72,19.72,0,0,0-11.64,4l4.44,80.9q15-6.5,20-12.85t6.09-10.53q.88-2,1.82-9.69A145.49,145.49,0,0,0,497,89.74a86.87,86.87,0,0,0-2.26-21.29Q492.47,59.6,487,57.74Z"/><path class="cls-5" d="M758.62,76.67q15.92-5.23,27.47-5.24A36.09,36.09,0,0,1,804.49,76a60.72,60.72,0,0,1,10.58,8.31A73.24,73.24,0,0,1,825.43,96.5a40.28,40.28,0,0,1,6,13q4.71,18.93,4.71,33.07a133.68,133.68,0,0,1-1,15.69q-1,8.22-3,21.11L795,181.57q.18-4.44.18-12.8,0-34.85-9.6-59.29-3.73-9.17-7.29-9.16-4.63,0-10.23,12.8a38.74,38.74,0,0,0-2.18,7.11,72.71,72.71,0,0,0-1.24,9q-.4,5-.4,11.74,0,13.68,1.6,34.75l-43.65,5.07a112,112,0,0,1-.89-12.09q-.27-6.93-.35-14.31t-.58-13.47q-.4-6.09-1.65-13.82L716.3,11.15l36.45-4.44Z"/><g class="cls-6"><path class="cls-1" d="M778.27,100.32q-3.22,0-6.91,6.2h12.88Q781.2,100.33,778.27,100.32Z"/><path class="cls-1" d="M686.92,102q-8-2.31-17.73-4.45a75.48,75.48,0,0,0-15.11-2.13,8.74,8.74,0,0,0-4.36.89c-2.9,2.19-4.36,4.21-4.36,6a5.46,5.46,0,0,0,2.3,4.16H702.1Q693.73,104,686.92,102Z"/><path class="cls-1" d="M494.73,68.45Q492.47,59.6,487,57.74q-7.38-2.58-11.74-2.58a19.72,19.72,0,0,0-11.64,4l2.6,47.36h29.85A147.32,147.32,0,0,0,497,89.74,86.87,86.87,0,0,0,494.73,68.45Z"/><path class="cls-1" d="M579.49,105.65q0-8.7,6.93-13.33a28.38,28.38,0,0,0-9.64,3.11,33.12,33.12,0,0,0-8.13,5.87,26.46,26.46,0,0,0-4.1,5.22h15C579.51,106.23,579.49,106,579.49,105.65Z"/><path class="cls-7" d="M468.1,140.06q15-6.5,20-12.85t6.09-10.53q.88-2,1.82-9.69c0-.16,0-.32.05-.47H466.26Z"/><path class="cls-7" d="M675.23,114.54q17.07,1.88,27.61,8t15.24,14.27a37.91,37.91,0,0,1,2.31,4.71c0-.2,0-.42,0-.62q-.4-6.09-1.65-13.82l-.32-15.63c-.08.1-.16.16-.21.16q-2.67-1-12.93-4.13l-3.14-1H647.66a21.74,21.74,0,0,0,6.42,3.36A96.85,96.85,0,0,0,675.23,114.54Z"/><path class="cls-7" d="M627.1,140.28q3.85,1.47,11.29,3.47a100.83,100.83,0,0,1,11.33,3.6,51,51,0,0,0,17.87,3.2,47.64,47.64,0,0,0,10.84-1.2q5.16-1.2,5.52-2,0-2.31-7.87-4.58a118.19,118.19,0,0,0-17.56-3.51,94.44,94.44,0,0,1-22.18-5.38,53.72,53.72,0,0,1-11-5.54l.22,11.3C626.08,139.86,626.57,140.08,627.1,140.28Z"/><path class="cls-7" d="M561.44,116.68q0,8.08,7.65,13.15a24.3,24.3,0,0,0,13.69,4.54,25.06,25.06,0,0,0,3.64-.36V115.08a7.51,7.51,0,0,1-4.26-1.25c-1.65-1.31-2.52-3.76-2.64-7.31h-15a24.65,24.65,0,0,0-1.19,2.2A18.48,18.48,0,0,0,561.44,116.68Z"/><path class="cls-7" d="M475.3,176.42a57.26,57.26,0,0,0,24.32-8.63,65.41,65.41,0,0,0,18.71-18.27,82.34,82.34,0,0,0,5.9-10.08c-.2-2.08-.3-4.18-.3-6.32q0-15.45,6.45-26.6H496.11c0,.15,0,.31-.05.47q-.93,7.73-1.82,9.69-1.07,4.17-6.09,10.53t-20,12.85l-1.84-33.54H429.91L438.23,183Z"/><path class="cls-7" d="M785.56,109.48q9.6,24.43,9.6,59.29,0,8.35-.18,12.8l37.16-2.22q2-12.89,3-21.11a133.68,133.68,0,0,0,1-15.69q0-14.15-4.71-33.07c-.24-1-.53-2-.87-3H784.24C784.67,107.41,785.11,108.39,785.56,109.48Z"/><path class="cls-7" d="M720.75,107a24.11,24.11,0,0,1-2.37,4.46l.32,15.63q1.24,7.72,1.65,13.82c0,.2,0,.42,0,.62a31.56,31.56,0,0,1,2.4,12A26.9,26.9,0,0,1,721.1,163c.06,1.9.11,3.79.18,5.64a112,112,0,0,0,.89,12.09l43.65-5.07q-1.61-21.06-1.6-34.75,0-6.76.4-11.74a72.71,72.71,0,0,1,1.24-9,38.74,38.74,0,0,1,2.18-7.11,61,61,0,0,1,3.32-6.6H721Z"/><path class="cls-7" d="M720.39,141.52a37.91,37.91,0,0,0-2.31-4.71q-4.71-8.13-15.24-14.27t-27.61-8a96.85,96.85,0,0,1-21.15-4.66,21.74,21.74,0,0,1-6.42-3.36H625l0,3.13a70.16,70.16,0,0,1,.71,10.49,58.71,58.71,0,0,1-.36,7.65v.55a53.72,53.72,0,0,0,11,5.54,94.44,94.44,0,0,0,22.18,5.38,118.19,118.19,0,0,1,17.56,3.51q7.86,2.26,7.87,4.58-.36.79-5.52,2a47.64,47.64,0,0,1-10.84,1.2,51,51,0,0,1-17.87-3.2,100.83,100.83,0,0,0-11.33-3.6q-7.42-2-11.29-3.47c-.53-.2-1-.42-1.51-.64l.71,35.84c6.05,1.94,11.81,3.66,17.24,5.16q9.19,2.54,19.25,4.27a107.77,107.77,0,0,0,18.05,1.73q29.24,0,39.55-21.87c.26-.57.5-1.15.71-1.73-.07-2.85-.14-5.72-.17-8.67C720.81,149.69,720.63,145.42,720.39,141.52Z"/><path class="cls-7" d="M718.17,111.61c.05,0,.13-.06.21-.16l-.1-4.93H702.1l3.14,1Q715.5,110.63,718.17,111.61Z"/><path class="cls-7" d="M720.39,141.52c.24,3.9.42,8.17.54,12.85,0,2.95.1,5.82.17,8.67a26.9,26.9,0,0,0,1.69-9.56A31.56,31.56,0,0,0,720.39,141.52Z"/><path class="cls-7" d="M720.75,107l.21-.47h-2.68l.1,4.93A24.11,24.11,0,0,0,720.75,107Z"/><path class="cls-7" d="M604.56,168.41q2.31-4.8,5.87-11.6t6.89-13.29q3.33-6.48,3.33-7.11a18.53,18.53,0,0,0,4.94,3.23l-.22-11.3a48.74,48.74,0,0,1-8-6.6,26.56,26.56,0,0,1-7.51-15.22H579.52c.12,3.55,1,6,2.64,7.31a7.51,7.51,0,0,0,4.26,1.25V134a25.06,25.06,0,0,1-3.64.36,24.3,24.3,0,0,1-13.69-4.54q-7.65-5.06-7.65-13.15a18.48,18.48,0,0,1,1.92-8,24.65,24.65,0,0,1,1.19-2.2H533.66a103.58,103.58,0,0,1-3.46,17.53,93,93,0,0,1-6,15.39,62,62,0,0,0,4.14,17.28,43.53,43.53,0,0,0,12.36,17.74,38.37,38.37,0,0,0,11.6,6.22A43.85,43.85,0,0,0,566.69,183a51.6,51.6,0,0,0,19.73-4v5.43l40-2.14-.13-6.8-2.36-.75Z"/><path class="cls-7" d="M533.66,106.52h-3.28q-6.43,11.15-6.45,26.6c0,2.14.1,4.24.3,6.32a93,93,0,0,0,6-15.39A103.58,103.58,0,0,0,533.66,106.52Z"/><path class="cls-7" d="M620.65,136.41q0,.63-3.33,7.11t-6.89,13.29q-3.55,6.81-5.87,11.6l19.38,6.32,2.36.75-.71-35.84A18.53,18.53,0,0,1,620.65,136.41Z"/><path class="cls-7" d="M625.37,128.34v-.55a58.71,58.71,0,0,0,.36-7.65,70.16,70.16,0,0,0-.71-10.49l0-3.13H609.85a26.56,26.56,0,0,0,7.51,15.22A48.74,48.74,0,0,0,625.37,128.34Z"/><rect x="428.04" y="101.99" width="405.44" height="6.69"/><circle class="cls-8" cx="626.43" cy="104.95" r="11.24"/></g><path class="cls-3" d="M680.84,192.64a113.39,113.39,0,0,1-19.07-1.82c-6.86-1.19-13.53-2.66-19.82-4.4s-12.89-3.72-19.86-6-13.4-4.35-19.39-6.31L596.18,172l3-6.18c1.57-3.26,3.57-7.22,6-11.78s4.65-8.93,6.87-13.25c1.62-3.14,2.35-4.68,2.67-5.4v-7.89c-.54-.51-1.06-1-1.58-1.55A33.08,33.08,0,0,1,603.54,102a50.69,50.69,0,0,1,5.09-21.28A37.57,37.57,0,0,1,626.34,62c7.44-3.69,16.36-5.56,26.49-5.56a133.92,133.92,0,0,1,34.53,4.74c11.35,3,27,7.78,46.54,14.13l6.45,2.1-2.88,6.15c-.37.8-2,4.55-4.8,11.15s-5,11.64-6.47,14.78c-2.17,4.71-3.74,8.11-8,8.11h-1.06l-1-.37c-1.15-.42-4.27-1.46-12.64-4-6.77-2.08-12.9-3.91-18.2-5.44s-11.07-3-17.37-4.35a70.47,70.47,0,0,0-13.82-2,7.36,7.36,0,0,0-1.28.09c-.34.29-.62.53-.83.74a18.53,18.53,0,0,0,4.15,2A91.69,91.69,0,0,0,676,108.59c12.09,1.32,22.17,4.27,29.9,8.77,7.9,4.6,13.76,10.13,17.41,16.44a38.9,38.9,0,0,1,5.52,19.68,33,33,0,0,1-2.94,13.79C717.9,184.12,702.77,192.64,680.84,192.64Z"/><path class="cls-5" d="M718.17,111.61q-2.67-1-12.93-4.13T686.92,102q-8-2.31-17.73-4.45a75.48,75.48,0,0,0-15.11-2.13,8.74,8.74,0,0,0-4.36.89c-2.9,2.19-4.36,4.21-4.36,6q0,4.36,8.72,7.52a96.85,96.85,0,0,0,21.15,4.66q17.07,1.88,27.61,8t15.24,14.27a32.88,32.88,0,0,1,4.71,16.67,26.82,26.82,0,0,1-2.4,11.29q-10.3,21.87-39.55,21.87a107.77,107.77,0,0,1-18.05-1.73q-10-1.74-19.25-4.27t-19.6-5.91l-19.38-6.32q2.31-4.8,5.87-11.6t6.89-13.29q3.33-6.48,3.33-7.11a19.51,19.51,0,0,0,6.45,3.87q3.85,1.47,11.29,3.47a100.83,100.83,0,0,1,11.33,3.6,51,51,0,0,0,17.87,3.2,47.64,47.64,0,0,0,10.84-1.2q5.16-1.2,5.52-2,0-2.31-7.87-4.58a118.19,118.19,0,0,0-17.56-3.51,94.44,94.44,0,0,1-22.18-5.38,50.83,50.83,0,0,1-19-12.14A27.14,27.14,0,0,1,609.54,102a44.59,44.59,0,0,1,4.53-18.76A31.65,31.65,0,0,1,629,67.38q9.94-4.93,23.82-4.93a127.7,127.7,0,0,1,33,4.53q17,4.53,46.23,14c-.42.89-2,4.67-4.89,11.33s-5,11.55-6.4,14.63S718.47,111.61,718.17,111.61Z"/><path class="cls-3" d="M173.07,104.87a22.68,22.68,0,0,0-4.46,5.79,12.58,12.58,0,0,0-1.65,6c0,3.44,1.5,5.94,4.88,8.1,3.73,2.38,7.19,3.59,10.28,3.59a10.6,10.6,0,0,0,7.28-2.77,20.21,20.21,0,0,0,5.2-7.08,16.63,16.63,0,0,1-8.66,2.56,13.42,13.42,0,0,1-7.6-2.26l-.21-.14-.21-.16c-3.26-2.61-4.91-6.7-4.91-12.16C173,105.86,173,105.36,173.07,104.87Z"/><path class="cls-3" d="M231.41,120a78.92,78.92,0,0,1-1.11,13.37,70.55,70.55,0,0,1-3.06,11.94,42.4,42.4,0,0,1-4.89,9.84,90.31,90.31,0,0,1-12.82,15.35,71.09,71.09,0,0,1-14.28,10.62,64.51,64.51,0,0,1-14.57,6A56.69,56.69,0,0,1,166.21,189a49.57,49.57,0,0,1-16.32-2.69,44.89,44.89,0,0,1-13.38-7.15l-.1-.08a49.38,49.38,0,0,1-14.09-20.13,69.47,69.47,0,0,1-4.87-25.82c0-15.79,4.7-28.81,14-38.69A86.33,86.33,0,0,1,155,76.16a56.41,56.41,0,0,1,40.73-4.44,68.73,68.73,0,0,1,14.72,6.08,34.79,34.79,0,0,1,12.34,11,45.9,45.9,0,0,1,6.65,14.82A66.13,66.13,0,0,1,231.41,120Z"/><path class="cls-4" d="M207.54,83.07a28.79,28.79,0,0,1,10.27,9.12,39.8,39.8,0,0,1,5.78,12.89A60.31,60.31,0,0,1,225.41,120a73.08,73.08,0,0,1-1,12.35,65.89,65.89,0,0,1-2.8,10.94,36.28,36.28,0,0,1-4.18,8.44,83.78,83.78,0,0,1-12,14.4,65,65,0,0,1-13.07,9.74,58.07,58.07,0,0,1-13.2,5.42A50.12,50.12,0,0,1,166.21,183a43.55,43.55,0,0,1-14.36-2.35,38.73,38.73,0,0,1-11.6-6.18,43.34,43.34,0,0,1-12.36-17.74,63.19,63.19,0,0,1-4.44-23.6q0-21.42,12.35-34.58,10.57-11.28,21.87-17a50.29,50.29,0,0,1,36.45-4A62.41,62.41,0,0,1,207.54,83.07ZM202.3,98a24.5,24.5,0,0,1-6.54,11.91q-5,5.16-9.82,5.16a7.54,7.54,0,0,1-4.27-1.25Q179,111.7,179,106.36a14.3,14.3,0,0,1,2.71-8.09A17.93,17.93,0,0,1,190.3,92,29.73,29.73,0,0,0,179,94.19a31.9,31.9,0,0,0-9.38,5.73,29.11,29.11,0,0,0-6.26,7.91,18.58,18.58,0,0,0-2.36,8.85q0,8.26,7.65,13.15,7.11,4.54,13.51,4.54a16.62,16.62,0,0,0,11.2-4.23,26.94,26.94,0,0,0,7.47-10.84,36,36,0,0,0,2.57-13.11A29.72,29.72,0,0,0,202.3,98Z"/><polygon class="cls-3" points="316.32 66.26 360.48 9.55 386.35 54.72 331.21 91.93 316.32 66.26"/><path class="cls-4" d="M333.18,83.37l-9.64-16.61,36.18-46.47,18.65,32.57Z"/><path class="cls-3" d="M573.5,105c-.21.19-.41.39-.61.59a20.74,20.74,0,0,0-4.11,5.74,12.55,12.55,0,0,0-1.34,5.4c0,2.26.57,5.24,5,8.15a19.77,19.77,0,0,0,8,3.36v-8.45a13.36,13.36,0,0,1-1.59-.92l-.22-.14-.2-.16c-3.26-2.61-4.92-6.94-4.92-12.87C573.49,105.42,573.49,105.18,573.5,105Z"/><g class="cls-9"><path class="cls-1" d="M778.27,100.32q-3.22,0-6.91,6.2h12.88Q781.2,100.33,778.27,100.32Z"/><path class="cls-1" d="M686.92,102q-8-2.31-17.73-4.45a75.48,75.48,0,0,0-15.11-2.13,8.74,8.74,0,0,0-4.36.89c-2.9,2.19-4.36,4.21-4.36,6a5.46,5.46,0,0,0,2.3,4.16H702.1Q693.73,104,686.92,102Z"/><path class="cls-1" d="M494.73,68.45Q492.47,59.6,487,57.74q-7.38-2.58-11.74-2.58a19.72,19.72,0,0,0-11.64,4l2.6,47.36h29.85A147.32,147.32,0,0,0,497,89.74,86.87,86.87,0,0,0,494.73,68.45Z"/><path class="cls-1" d="M579.49,105.65q0-8.7,6.93-13.33a28.38,28.38,0,0,0-9.64,3.11,33.12,33.12,0,0,0-8.13,5.87,26.46,26.46,0,0,0-4.1,5.22h15C579.51,106.23,579.49,106,579.49,105.65Z"/><path class="cls-7" d="M468.1,140.06q15-6.5,20-12.85t6.09-10.53q.88-2,1.82-9.69c0-.16,0-.32.05-.47H466.26Z"/><path class="cls-7" d="M675.23,114.54q17.07,1.88,27.61,8t15.24,14.27a37.91,37.91,0,0,1,2.31,4.71c0-.2,0-.42,0-.62q-.4-6.09-1.65-13.82l-.32-15.63c-.08.1-.16.16-.21.16q-2.67-1-12.93-4.13l-3.14-1H647.66a21.74,21.74,0,0,0,6.42,3.36A96.85,96.85,0,0,0,675.23,114.54Z"/><path class="cls-7" d="M627.1,140.28q3.85,1.47,11.29,3.47a100.83,100.83,0,0,1,11.33,3.6,51,51,0,0,0,17.87,3.2,47.64,47.64,0,0,0,10.84-1.2q5.16-1.2,5.52-2,0-2.31-7.87-4.58a118.19,118.19,0,0,0-17.56-3.51,94.44,94.44,0,0,1-22.18-5.38,53.72,53.72,0,0,1-11-5.54l.22,11.3C626.08,139.86,626.57,140.08,627.1,140.28Z"/><path class="cls-7" d="M561.44,116.68q0,8.08,7.65,13.15a24.3,24.3,0,0,0,13.69,4.54,25.06,25.06,0,0,0,3.64-.36V115.08a7.51,7.51,0,0,1-4.26-1.25c-1.65-1.31-2.52-3.76-2.64-7.31h-15a24.65,24.65,0,0,0-1.19,2.2A18.48,18.48,0,0,0,561.44,116.68Z"/><path class="cls-7" d="M475.3,176.42a57.26,57.26,0,0,0,24.32-8.63,65.41,65.41,0,0,0,18.71-18.27,82.34,82.34,0,0,0,5.9-10.08c-.2-2.08-.3-4.18-.3-6.32q0-15.45,6.45-26.6H496.11c0,.15,0,.31-.05.47q-.93,7.73-1.82,9.69-1.07,4.17-6.09,10.53t-20,12.85l-1.84-33.54H429.91L438.23,183Z"/><path class="cls-7" d="M785.56,109.48q9.6,24.43,9.6,59.29,0,8.35-.18,12.8l37.16-2.22q2-12.89,3-21.11a133.68,133.68,0,0,0,1-15.69q0-14.15-4.71-33.07c-.24-1-.53-2-.87-3H784.24C784.67,107.41,785.11,108.39,785.56,109.48Z"/><path class="cls-7" d="M720.75,107a24.11,24.11,0,0,1-2.37,4.46l.32,15.63q1.24,7.72,1.65,13.82c0,.2,0,.42,0,.62a31.56,31.56,0,0,1,2.4,12A26.9,26.9,0,0,1,721.1,163c.06,1.9.11,3.79.18,5.64a112,112,0,0,0,.89,12.09l43.65-5.07q-1.61-21.06-1.6-34.75,0-6.76.4-11.74a72.71,72.71,0,0,1,1.24-9,38.74,38.74,0,0,1,2.18-7.11,61,61,0,0,1,3.32-6.6H721Z"/><path class="cls-7" d="M720.39,141.52a37.91,37.91,0,0,0-2.31-4.71q-4.71-8.13-15.24-14.27t-27.61-8a96.85,96.85,0,0,1-21.15-4.66,21.74,21.74,0,0,1-6.42-3.36H625l0,3.13a70.16,70.16,0,0,1,.71,10.49,58.71,58.71,0,0,1-.36,7.65v.55a53.72,53.72,0,0,0,11,5.54,94.44,94.44,0,0,0,22.18,5.38,118.19,118.19,0,0,1,17.56,3.51q7.86,2.26,7.87,4.58-.36.79-5.52,2a47.64,47.64,0,0,1-10.84,1.2,51,51,0,0,1-17.87-3.2,100.83,100.83,0,0,0-11.33-3.6q-7.42-2-11.29-3.47c-.53-.2-1-.42-1.51-.64l.71,35.84c6.05,1.94,11.81,3.66,17.24,5.16q9.19,2.54,19.25,4.27a107.77,107.77,0,0,0,18.05,1.73q29.24,0,39.55-21.87c.26-.57.5-1.15.71-1.73-.07-2.85-.14-5.72-.17-8.67C720.81,149.69,720.63,145.42,720.39,141.52Z"/><path class="cls-7" d="M718.17,111.61c.05,0,.13-.06.21-.16l-.1-4.93H702.1l3.14,1Q715.5,110.63,718.17,111.61Z"/><path class="cls-7" d="M720.39,141.52c.24,3.9.42,8.17.54,12.85,0,2.95.1,5.82.17,8.67a26.9,26.9,0,0,0,1.69-9.56A31.56,31.56,0,0,0,720.39,141.52Z"/><path class="cls-7" d="M720.75,107l.21-.47h-2.68l.1,4.93A24.11,24.11,0,0,0,720.75,107Z"/><path class="cls-7" d="M604.56,168.41q2.31-4.8,5.87-11.6t6.89-13.29q3.33-6.48,3.33-7.11a18.53,18.53,0,0,0,4.94,3.23l-.22-11.3a48.74,48.74,0,0,1-8-6.6,26.56,26.56,0,0,1-7.51-15.22H579.52c.12,3.55,1,6,2.64,7.31a7.51,7.51,0,0,0,4.26,1.25V134a25.06,25.06,0,0,1-3.64.36,24.3,24.3,0,0,1-13.69-4.54q-7.65-5.06-7.65-13.15a18.48,18.48,0,0,1,1.92-8,24.65,24.65,0,0,1,1.19-2.2H533.66a103.58,103.58,0,0,1-3.46,17.53,93,93,0,0,1-6,15.39,62,62,0,0,0,4.14,17.28,43.53,43.53,0,0,0,12.36,17.74,38.37,38.37,0,0,0,11.6,6.22A43.85,43.85,0,0,0,566.69,183a51.6,51.6,0,0,0,19.73-4v5.43l40-2.14-.13-6.8-2.36-.75Z"/><path class="cls-7" d="M533.66,106.52h-3.28q-6.43,11.15-6.45,26.6c0,2.14.1,4.24.3,6.32a93,93,0,0,0,6-15.39A103.58,103.58,0,0,0,533.66,106.52Z"/><path class="cls-7" d="M620.65,136.41q0,.63-3.33,7.11t-6.89,13.29q-3.55,6.81-5.87,11.6l19.38,6.32,2.36.75-.71-35.84A18.53,18.53,0,0,1,620.65,136.41Z"/><path class="cls-7" d="M625.37,128.34v-.55a58.71,58.71,0,0,0,.36-7.65,70.16,70.16,0,0,0-.71-10.49l0-3.13H609.85a26.56,26.56,0,0,0,7.51,15.22A48.74,48.74,0,0,0,625.37,128.34Z"/><rect x="428.04" y="101.99" width="405.44" height="6.69"/><circle class="cls-8" cx="626.43" cy="104.95" r="11.24"/></g><g class="cls-10"><path class="cls-1" d="M778.27,100.32q-3.22,0-6.91,6.2h12.88Q781.2,100.33,778.27,100.32Z"/><path class="cls-1" d="M686.92,102q-8-2.31-17.73-4.45a75.48,75.48,0,0,0-15.11-2.13,8.74,8.74,0,0,0-4.36.89c-2.9,2.19-4.36,4.21-4.36,6a5.46,5.46,0,0,0,2.3,4.16H702.1Q693.73,104,686.92,102Z"/><path class="cls-1" d="M494.73,68.45Q492.47,59.6,487,57.74q-7.38-2.58-11.74-2.58a19.72,19.72,0,0,0-11.64,4l2.6,47.36h29.85A147.32,147.32,0,0,0,497,89.74,86.87,86.87,0,0,0,494.73,68.45Z"/><path class="cls-1" d="M579.49,105.65q0-8.7,6.93-13.33a28.38,28.38,0,0,0-9.64,3.11,33.12,33.12,0,0,0-8.13,5.87,26.46,26.46,0,0,0-4.1,5.22h15C579.51,106.23,579.49,106,579.49,105.65Z"/><path class="cls-7" d="M468.1,140.06q15-6.5,20-12.85t6.09-10.53q.88-2,1.82-9.69c0-.16,0-.32.05-.47H466.26Z"/><path class="cls-7" d="M675.23,114.54q17.07,1.88,27.61,8t15.24,14.27a37.91,37.91,0,0,1,2.31,4.71c0-.2,0-.42,0-.62q-.4-6.09-1.65-13.82l-.32-15.63c-.08.1-.16.16-.21.16q-2.67-1-12.93-4.13l-3.14-1H647.66a21.74,21.74,0,0,0,6.42,3.36A96.85,96.85,0,0,0,675.23,114.54Z"/><path class="cls-7" d="M627.1,140.28q3.85,1.47,11.29,3.47a100.83,100.83,0,0,1,11.33,3.6,51,51,0,0,0,17.87,3.2,47.64,47.64,0,0,0,10.84-1.2q5.16-1.2,5.52-2,0-2.31-7.87-4.58a118.19,118.19,0,0,0-17.56-3.51,94.44,94.44,0,0,1-22.18-5.38,53.72,53.72,0,0,1-11-5.54l.22,11.3C626.08,139.86,626.57,140.08,627.1,140.28Z"/><path class="cls-7" d="M561.44,116.68q0,8.08,7.65,13.15a24.3,24.3,0,0,0,13.69,4.54,25.06,25.06,0,0,0,3.64-.36V115.08a7.51,7.51,0,0,1-4.26-1.25c-1.65-1.31-2.52-3.76-2.64-7.31h-15a24.65,24.65,0,0,0-1.19,2.2A18.48,18.48,0,0,0,561.44,116.68Z"/><path class="cls-7" d="M475.3,176.42a57.26,57.26,0,0,0,24.32-8.63,65.41,65.41,0,0,0,18.71-18.27,82.34,82.34,0,0,0,5.9-10.08c-.2-2.08-.3-4.18-.3-6.32q0-15.45,6.45-26.6H496.11c0,.15,0,.31-.05.47q-.93,7.73-1.82,9.69-1.07,4.17-6.09,10.53t-20,12.85l-1.84-33.54H429.91L438.23,183Z"/><path class="cls-7" d="M785.56,109.48q9.6,24.43,9.6,59.29,0,8.35-.18,12.8l37.16-2.22q2-12.89,3-21.11a133.68,133.68,0,0,0,1-15.69q0-14.15-4.71-33.07c-.24-1-.53-2-.87-3H784.24C784.67,107.41,785.11,108.39,785.56,109.48Z"/><path class="cls-7" d="M720.75,107a24.11,24.11,0,0,1-2.37,4.46l.32,15.63q1.24,7.72,1.65,13.82c0,.2,0,.42,0,.62a31.56,31.56,0,0,1,2.4,12A26.9,26.9,0,0,1,721.1,163c.06,1.9.11,3.79.18,5.64a112,112,0,0,0,.89,12.09l43.65-5.07q-1.61-21.06-1.6-34.75,0-6.76.4-11.74a72.71,72.71,0,0,1,1.24-9,38.74,38.74,0,0,1,2.18-7.11,61,61,0,0,1,3.32-6.6H721Z"/><path class="cls-7" d="M720.39,141.52a37.91,37.91,0,0,0-2.31-4.71q-4.71-8.13-15.24-14.27t-27.61-8a96.85,96.85,0,0,1-21.15-4.66,21.74,21.74,0,0,1-6.42-3.36H625l0,3.13a70.16,70.16,0,0,1,.71,10.49,58.71,58.71,0,0,1-.36,7.65v.55a53.72,53.72,0,0,0,11,5.54,94.44,94.44,0,0,0,22.18,5.38,118.19,118.19,0,0,1,17.56,3.51q7.86,2.26,7.87,4.58-.36.79-5.52,2a47.64,47.64,0,0,1-10.84,1.2,51,51,0,0,1-17.87-3.2,100.83,100.83,0,0,0-11.33-3.6q-7.42-2-11.29-3.47c-.53-.2-1-.42-1.51-.64l.71,35.84c6.05,1.94,11.81,3.66,17.24,5.16q9.19,2.54,19.25,4.27a107.77,107.77,0,0,0,18.05,1.73q29.24,0,39.55-21.87c.26-.57.5-1.15.71-1.73-.07-2.85-.14-5.72-.17-8.67C720.81,149.69,720.63,145.42,720.39,141.52Z"/><path class="cls-7" d="M718.17,111.61c.05,0,.13-.06.21-.16l-.1-4.93H702.1l3.14,1Q715.5,110.63,718.17,111.61Z"/><path class="cls-7" d="M720.39,141.52c.24,3.9.42,8.17.54,12.85,0,2.95.1,5.82.17,8.67a26.9,26.9,0,0,0,1.69-9.56A31.56,31.56,0,0,0,720.39,141.52Z"/><path class="cls-7" d="M720.75,107l.21-.47h-2.68l.1,4.93A24.11,24.11,0,0,0,720.75,107Z"/><path class="cls-7" d="M604.56,168.41q2.31-4.8,5.87-11.6t6.89-13.29q3.33-6.48,3.33-7.11a18.53,18.53,0,0,0,4.94,3.23l-.22-11.3a48.74,48.74,0,0,1-8-6.6,26.56,26.56,0,0,1-7.51-15.22H579.52c.12,3.55,1,6,2.64,7.31a7.51,7.51,0,0,0,4.26,1.25V134a25.06,25.06,0,0,1-3.64.36,24.3,24.3,0,0,1-13.69-4.54q-7.65-5.06-7.65-13.15a18.48,18.48,0,0,1,1.92-8,24.65,24.65,0,0,1,1.19-2.2H533.66a103.58,103.58,0,0,1-3.46,17.53,93,93,0,0,1-6,15.39,62,62,0,0,0,4.14,17.28,43.53,43.53,0,0,0,12.36,17.74,38.37,38.37,0,0,0,11.6,6.22A43.85,43.85,0,0,0,566.69,183a51.6,51.6,0,0,0,19.73-4v5.43l40-2.14-.13-6.8-2.36-.75Z"/><path class="cls-7" d="M533.66,106.52h-3.28q-6.43,11.15-6.45,26.6c0,2.14.1,4.24.3,6.32a93,93,0,0,0,6-15.39A103.58,103.58,0,0,0,533.66,106.52Z"/><path class="cls-7" d="M620.65,136.41q0,.63-3.33,7.11t-6.89,13.29q-3.55,6.81-5.87,11.6l19.38,6.32,2.36.75-.71-35.84A18.53,18.53,0,0,1,620.65,136.41Z"/><path class="cls-7" d="M625.37,128.34v-.55a58.71,58.71,0,0,0,.36-7.65,70.16,70.16,0,0,0-.71-10.49l0-3.13H609.85a26.56,26.56,0,0,0,7.51,15.22A48.74,48.74,0,0,0,625.37,128.34Z"/><rect x="428.04" y="101.99" width="405.44" height="6.69"/><circle class="cls-8" cx="626.43" cy="104.95" r="11.24"/></g><path class="cls-3" d="M580.42,190.74v-3.47A55.9,55.9,0,0,1,566.69,189a50,50,0,0,1-16.31-2.63,44.57,44.57,0,0,1-13.4-7.22l-.08-.07a49.4,49.4,0,0,1-14.1-20.13,69.43,69.43,0,0,1-4.87-25.82c0-15.79,4.7-28.81,14-38.69a89.12,89.12,0,0,1,23.65-18.21,56.67,56.67,0,0,1,25.89-6.44c2.41,0,4.24.07,5.6.21l.25,0,42.87-19.28.83,58.42a76.55,76.55,0,0,1,.72,11,70.38,70.38,0,0,1-.35,8L632.54,188Z"/><path class="cls-5" d="M587.14,76.67,624.3,60l.71,49.69a70.16,70.16,0,0,1,.71,10.49,58.71,58.71,0,0,1-.36,7.65l1.07,54.49-40,2.14V179a51.6,51.6,0,0,1-19.73,4,43.85,43.85,0,0,1-14.36-2.31,38.37,38.37,0,0,1-11.6-6.22,43.53,43.53,0,0,1-12.36-17.74,63.19,63.19,0,0,1-4.44-23.6q0-21.42,12.36-34.58a82.56,82.56,0,0,1,22-17,50.45,50.45,0,0,1,23.16-5.78c2.19,0,3.85.06,5,.18Zm-.72,15.65a28.38,28.38,0,0,0-9.64,3.11,33.12,33.12,0,0,0-8.13,5.87,26.13,26.13,0,0,0-5.29,7.42,18.48,18.48,0,0,0-1.92,8q0,8.08,7.65,13.15a24.3,24.3,0,0,0,13.69,4.54,25.06,25.06,0,0,0,3.64-.36V115.08a7.51,7.51,0,0,1-4.26-1.25q-2.67-2.13-2.67-8.18Q579.49,96.95,586.42,92.32Z"/><path class="cls-11" d="M369.6,240.73s2.24,3.77,2.25,3.76l3.95-2,.55-.28,18.11,40.33,1.74,3.88,4.05-1.35,9.81-3.24,4.29-1.42-1.13-4.36-5.21-20a41.71,41.71,0,0,0,4.18-3.57,18.41,18.41,0,0,0,.52,7.13,16.58,16.58,0,0,0,8.94,10.72,19.31,19.31,0,0,0,15.92-.15,23.33,23.33,0,0,0,7.11-4.88l.74,8,17.16-2.71,0-15.43,35.86,17.4V255.37a28.35,28.35,0,0,0,4.39-.74,36.8,36.8,0,0,0,10.33-4.18l-1.51,9.24L531,262.55l1.07-7,5.05,9.31,3.08-6,1.12,9.78,21.93,3.64-1.16-7.38a19.84,19.84,0,0,0,9.22-1.31,20.44,20.44,0,0,0,2.13-1l-.88,7.88,14.59,1.9.12,6,15.2,4.64,19.82-60-20.63-4.81-2,8.12-1.81-9-24.24-5.09.17,13.51,3.66.77-.28,2.45-.1-.06a18.72,18.72,0,0,0-15.42-.49,22.6,22.6,0,0,0-4.92,2.71l-3.64-23.09-16.12.17-.45,2.65-17,.18L517.61,223l-1.41-1.72a21.42,21.42,0,0,0-16.67-7.83l14.4-7.9-10-14.92-18.15,21.14,3.14,3.81a23.84,23.84,0,0,0-7.37,4.77L466,206.65l-5.45,10.51.21-10-24.34,8,.62,13.11,4.14-1.13.62,6.64a19.57,19.57,0,0,0-15.68.32,23.36,23.36,0,0,0-4.37,2.53,18.57,18.57,0,0,0-.84-11.58,20.55,20.55,0,0,0-8.93-9.77,21.17,21.17,0,0,0-9.45-3.26c-8.41-1.39-18.52.23-28.47,4.58A69.57,69.57,0,0,0,363.86,222L360,224.52l2.35,3.95M470.5,238l4.61-4.53a22.08,22.08,0,0,0,.34,6.4Zm45.25-3.52-3.17-2.82L516,228l1-1.1Z"/><path class="cls-4" d="M604.67,214.37l-2,8.09-1.81-9-24.3-5.35.18,13.51,3.66.81-.28,2.44-.1-.06a18.84,18.84,0,0,0-15.46-.64,22.62,22.62,0,0,0-4.92,2.65L556,203.72H539.87l-.45,2.66h-17l-1.95,11.9-1.41-1.74a21.73,21.73,0,0,0-16.7-8l14.43-7.75-10.07-15-18.19,21,3.15,3.84a23.56,23.56,0,0,0-7.39,4.69L468.7,201.42l-5.47,10.45.22-10-24.39,7.78.62,13.11,4.15-1.08.62,6.64a19.68,19.68,0,0,0-15.72.16,22.74,22.74,0,0,0-4.38,2.49,18.54,18.54,0,0,0-.84-11.59,20.83,20.83,0,0,0-8.95-9.86,21.38,21.38,0,0,0-9.47-3.37c-8.43-1.48-18.56,0-28.53,4.28a70,70,0,0,0-10.17,5.31l-3.9,2.48,2.35,4,7.3,12.34s2.25,3.79,2.26,3.79l4-1.94.56-.27,18.14,40.52,1.74,3.89,4.07-1.29,9.82-3.15,4.31-1.37-1.14-4.37-5.22-20a43,43,0,0,0,4.2-3.52,18.28,18.28,0,0,0,.51,7.14,16.86,16.86,0,0,0,9,10.81,19.42,19.42,0,0,0,16,0,23.19,23.19,0,0,0,7.13-4.8l.74,8,17.19-2.53,0-15.43,35.94,17.78V250.48a29.58,29.58,0,0,0,4.4-.7A36.84,36.84,0,0,0,516,245.71l-1.51,9.23L533.86,258l1.07-7,5.06,9.36,3.09-6,1.13,9.79,22,3.88-1.16-7.4a20,20,0,0,0,9.24-1.21,22.62,22.62,0,0,0,2.13-.95l-.88,7.87,14.62,2.05.12,6,15.24,4.79,19.86-59.84ZM405.35,236.74l-2.24-7.42s-.3-1.09-.66-2.35a6.37,6.37,0,0,1,3.84.42,3.29,3.29,0,0,1,1.9,2.29C408.71,232.59,407.7,234.66,405.35,236.74Zm67.91-4,4.62-4.48a22.16,22.16,0,0,0,.34,6.41Zm21.2-1.82a6.1,6.1,0,0,1,7.56-8.62Zm24.14-1.22-3.17-2.86,3.39-3.61,1-1.08Z"/><path class="cls-3" d="M604.67,214.37l-2,8.09-1.81-9-24.3-5.35.18,13.51,3.66.81-.28,2.44-.1-.06a18.84,18.84,0,0,0-15.46-.64,22.62,22.62,0,0,0-4.92,2.65L556,203.72H539.87l-.45,2.66h-17l-1.95,11.9-1.41-1.74a21.73,21.73,0,0,0-16.7-8l14.43-7.75-10.07-15-18.19,21,3.15,3.84a23.56,23.56,0,0,0-7.39,4.69L468.7,201.42l-5.47,10.45.22-10-24.39,7.78.62,13.11,4.15-1.08.62,6.64a19.68,19.68,0,0,0-15.72.16,22.74,22.74,0,0,0-4.38,2.49,18.54,18.54,0,0,0-.84-11.59,20.83,20.83,0,0,0-8.95-9.86,21.38,21.38,0,0,0-9.47-3.37c-8.43-1.48-18.56,0-28.53,4.28a70,70,0,0,0-10.17,5.31l-3.9,2.48,2.35,4,7.3,12.34s2.25,3.79,2.26,3.79l4-1.94.56-.27,18.14,40.52,1.74,3.89,4.07-1.29,9.82-3.15,4.31-1.37-1.14-4.37-5.22-20a43,43,0,0,0,4.2-3.52,18.28,18.28,0,0,0,.51,7.14,16.86,16.86,0,0,0,9,10.81,19.42,19.42,0,0,0,16,0,23.19,23.19,0,0,0,7.13-4.8l.74,8,17.19-2.53,0-15.43,35.94,17.78V250.48a29.58,29.58,0,0,0,4.4-.7A36.84,36.84,0,0,0,516,245.71l-1.51,9.23L533.86,258l1.07-7,5.06,9.36,3.09-6,1.13,9.79,22,3.88-1.16-7.4a20,20,0,0,0,9.24-1.21,22.62,22.62,0,0,0,2.13-.95l-.88,7.87,14.62,2.05.12,6,15.24,4.79,19.86-59.84Zm-85.85,8.88,1-1.08-1.24,7.55-3.17-2.86ZM506,192.44l5.32,7.23-15.22,7.54-1.05-1.6Zm-27.73,42.25-5-1.93,4.62-4.48A22.16,22.16,0,0,0,478.22,234.69ZM405.17,248.2l6.06,23.3-9.82,3.14-20.18-45c-1.09.57-3.11,1.54-5,2.46L369,219.72a66.16,66.16,0,0,1,9.48-4.94c9.51-4,18.57-5.24,25.84-4a17.39,17.39,0,0,1,7.65,2.64,16.34,16.34,0,0,1,7.21,7.79C422.64,229.34,416.78,241,405.17,248.2ZM446.83,254a19.68,19.68,0,0,1-8.2,6.61c-8.53,3.61-17.05,0-19.33-8.09-2.2-7.84,2.93-17.14,11.19-20.7,5.27-2.23,10.56-1.7,14.36.88a12.31,12.31,0,0,1,5,7c.1.33.17.66.24,1a14.37,14.37,0,0,1,.29,3.46A18.12,18.12,0,0,1,446.83,254Zm49.91,6.57-35.66-17.83.06,18.68-9.22,1.27-.65-7.72a20.63,20.63,0,0,0,2.4-15.9,16.7,16.7,0,0,0-4.37-7.44L448,215.86,443.83,217l-.18-4,14.82-4.42.9,15.29,10.92-15.34L481,218.66l-14.91,15.73,14,5.54a19.2,19.2,0,0,0,6.95,7.35,22.57,22.57,0,0,0,9.73,3.18Zm7.81-15.25a24.89,24.89,0,0,1-3.31.56c-8.18.8-15-3-17.65-9.06a13.53,13.53,0,0,1-.75-2.28,16.08,16.08,0,0,1,2.35-13.31,16.92,16.92,0,0,1,2.57-2.86,20.61,20.61,0,0,1,8.9-4.52c7.8-1.88,14.67.5,18.86,5.67l-14.85,15.81a10.81,10.81,0,0,0,3.8-.37,12.9,12.9,0,0,0,7.26-4.78l5.93,5.35,1.81,1.62a30.09,30.09,0,0,1-2.44,2.25A29.49,29.49,0,0,1,504.55,245.27Zm56.12,17-12.14-1.85-3.22-21.4-4.57,11.81L533.9,236.1h-.07l-2.71,17.09-11.4-2,1.6-9.53c.43-.41.86-.82,1.27-1.25l3.69-3.8-3.58-3.22,3.81-22.7H538l2.87,15.71,3.23-18.22h8.23l3.41,22.2c-4.35,4.95-6.45,11.6-5,17.69a16.15,16.15,0,0,0,8.18,10.73c.42.23.85.42,1.29.61Zm12.16-6.61a15.56,15.56,0,0,1-8.47.83,12.52,12.52,0,0,1-4.9-2.1,12.14,12.14,0,0,1-4.71-7.17,15.25,15.25,0,0,1,1.9-11.06,19,19,0,0,1,3.77-4.64A18.56,18.56,0,0,1,566.2,228c5-1.89,10-1.23,13.47,1.28a11.34,11.34,0,0,1,3.18,3.43,12.23,12.23,0,0,1,1.44,3.5,16,16,0,0,1-3,13,19.16,19.16,0,0,1-4.33,4.29A18.41,18.41,0,0,1,572.83,255.69Zm29.8,18-8.43-2.52-.74-31.08-4.24,24-9.2-1.47.66-6.91c6-5.07,9.19-13.08,7.45-20.33a16,16,0,0,0-4.75-8.15l.77-8.14-3.47-.93.23-4.34L596.76,217l5.33,25.27,5.46-22.65,12.06,2.67Z"/><path class="cls-3" d="M577.16,233.54a3.84,3.84,0,0,1,.12,1.13,4.83,4.83,0,0,1-9.58-.39,4.49,4.49,0,0,1,4.49-4.06,7.67,7.67,0,0,0-1.44-.19c-4.43-.18-8,2.95-8.2,6.86a7.89,7.89,0,0,0,15.74.64A6.72,6.72,0,0,0,577.16,233.54Z"/><path class="cls-3" d="M442.93,238.3a4.83,4.83,0,0,1-9.59,0,4.5,4.5,0,0,1,4.32-4.25,8.69,8.69,0,0,0-1.45-.12c-4.43,0-7.91,3.27-7.91,7.18a7.89,7.89,0,0,0,15.75,0,6.74,6.74,0,0,0-1.3-3.94A3.87,3.87,0,0,1,442.93,238.3Z"/><path class="cls-3" d="M494.66,230.34a5.48,5.48,0,0,1,6.76-7.76Zm.75-6.33a5.48,5.48,0,0,0-.75,6.33l6.76-7.76A5.47,5.47,0,0,0,495.41,224Zm9.76-2.59A8.48,8.48,0,1,0,493.75,234a10,10,0,0,0,.9.71L505.77,222C505.58,221.82,505.38,221.61,505.17,221.42Zm-10.51,8.92a5.48,5.48,0,0,1,6.76-7.76Z"/><path class="cls-3" d="M411.41,229c-.86-4.77-7.07-7.45-13.29-4.12l1.56,5.47,2.46,8.09,1.12,3.68C407.92,239.12,412.61,235.57,411.41,229Zm-6.18,7.29-2.12-7s-.29-1-.63-2.21a6,6,0,0,1,3.61.39,3.1,3.1,0,0,1,1.8,2.15C408.39,232.34,407.44,234.29,405.23,236.25Z"/><path d="M609.42,275h2.08v.31h-.86v2.26h-.35v-2.26h-.87Z"/><path d="M611.81,277.55V275h.5l.74,2.17.73-2.17h.49v2.57h-.33V276s0-.13,0-.26v-.39l-.73,2.17h-.35l-.73-2.17v.37c0,.13,0,.22,0,.28v1.52Z"/><path d="M609.42,290h2.08v.3h-.86v2.27h-.35v-2.27h-.87Z"/><path d="M611.81,292.52V290h.5l.74,2.17.73-2.17h.49v2.57h-.33V291c0-.05,0-.14,0-.26v-.39l-.73,2.17h-.35l-.73-2.17v.37c0,.13,0,.22,0,.28v1.52Z"/><path class="cls-7" d="M420.45,297.06c-.3,1.55-.56,3.22-.68,4.53s.2,2.42.16,3a1.75,1.75,0,0,1-1.28,1.24c-.48.1-1.06.13-1.31-.64a6.57,6.57,0,0,1-.08-2.18c.1-1.16.24-2,.36-2.7-4.56,4.6-8.9,7.47-12.6,8.48-3.34.75-4.64-1.1-4.43-4.26.64-5.51,5.44-13.72,9-18.4a9.11,9.11,0,0,1,2.78-2.36c.49-.18,1-.14,1.2.48a6.83,6.83,0,0,1,.24,1.35c0,.56.08,1,.07,1.18s-.2.9-.58,1a1.76,1.76,0,0,1-.6.09,2.35,2.35,0,0,0-.58,0,2.42,2.42,0,0,0-1.19.89c-2.41,3.07-6.17,8.92-6.84,15.13-.14,2.11.67,2.68,2.08,2.37,2.16-.61,7-4,10.29-7.74a6.64,6.64,0,0,0,.55-.64,15.11,15.11,0,0,0-2,1,11.94,11.94,0,0,1-2.56,1.33,1.07,1.07,0,0,1-1.27-1.14,2.34,2.34,0,0,1,1.33-1.77,17,17,0,0,0,2.94-1.18c1.85-.89,4.31-2.08,4.82-2.24.24,0,.62.23.59.76A17.72,17.72,0,0,1,420.45,297.06Z"/><path class="cls-7" d="M426.61,290c.42-.4.36-1,1.25-1.21s1,.15,1.79,0c1.64-.25,5,1.31,4.72,6.6a10.16,10.16,0,0,1-7.53,8.75c-2.91.48-5-.34-4.75-4.77A18,18,0,0,1,426.61,290Zm4.06,6.71c.19-2.77-.66-5.23-1.61-5.16-1,.31-2.83,3.66-3.17,6.92-.2,2.71.51,3.5,1.57,3.35C428.68,301.52,430.37,299.51,430.67,296.7Z"/><path class="cls-7" d="M435.89,291.54a.83.83,0,0,1-.94-.89,1.77,1.77,0,0,1,1.19-1.7c.45-.08.87-.33,1.25-.41.17-2.26-.14-3.91,0-5.68a2.59,2.59,0,0,1,1.83-2.32A1.3,1.3,0,0,1,441,282c-.06.86-.06,3.69-.21,5.48.45-.16.68-.45,1.22-.55.72-.1,1.15.45,1.13,1.33a1.71,1.71,0,0,1-.81,1.41,12.59,12.59,0,0,1-1.48.57c-.05.69-.21,4.47-.18,5.51s-.15,4.68-.19,5.25a2.08,2.08,0,0,1-1.62,1.47c-1.09.15-1.86-.09-1.94-.7s.13-3.69.24-5,.22-4.78.28-5.57C436.91,291.29,436.4,291.45,435.89,291.54Z"/><path class="cls-7" d="M444.92,290.1a.86.86,0,0,1-.93-.94,1.77,1.77,0,0,1,1.19-1.72c.44-.07.87-.32,1.24-.38.18-2.35-.12-4.09.05-5.95a2.61,2.61,0,0,1,1.84-2.38A1.36,1.36,0,0,1,450,280.3c-.06.9-.08,3.88-.23,5.73.45-.15.68-.45,1.22-.54.72-.08,1.15.51,1.12,1.41a1.76,1.76,0,0,1-.8,1.44,11.8,11.8,0,0,1-1.49.54c-.05.71-.22,4.57-.18,5.62s-.15,4.68-.19,5.25a2,2,0,0,1-1.62,1.41c-1.09.13-1.86-.12-1.93-.72s.12-3.67.23-5,.22-4.86.29-5.68C445.94,289.88,445.43,290,444.92,290.1Z"/><path class="cls-7" d="M459.52,297.31a9.72,9.72,0,0,1-5.41,2.56c-1.63.17-2.47-.11-2.44-1.23.19-2,1.66-3.81,3.61-5.59,1.59-1.53,3.35-3,3.82-3.47a2.22,2.22,0,0,1,.83-.5c-.08-1.23-.4-2.54-1.45-2.47a6.29,6.29,0,0,0-2.91,1.87c-.09.11-.57.77-.91.83a1.3,1.3,0,0,1-1.35-1.43,2.11,2.11,0,0,1,.63-1.3,18.85,18.85,0,0,1,5.53-3.21c1.06-.12,2.88.15,3.73,5.63a27.41,27.41,0,0,1,.12,5.83,13,13,0,0,1-.87,3.64c-.2.39-1.18.64-1.56.68-.57.05-1.59,0-1.55-.92Zm-3.44-2.17a3.2,3.2,0,0,0-.81,1.8c0,.48.26.69.77.64a5.58,5.58,0,0,0,2.85-1.73,4.45,4.45,0,0,1,.89-.49c.09-1.05.21-2.41.23-3.79A22.92,22.92,0,0,0,456.08,295.14Z"/><path class="cls-7" d="M476.08,293.67c-.09,1.23.1,1.83,1.25,1.79a7.27,7.27,0,0,0,2.84-1.13c.55-.34,1.52-1.64,2.46-1.73s1.44.48,1.42,1c-.36,2-5.19,3.82-7.69,4.06-3.44.1-3.92-1.53-3.8-3.27.78-6.5,6.83-12.22,8.09-12.49.87,0,1.44.35,1.35,1.73-.1,1-.39,2-1.31,2.34C478,286.92,476.34,291.29,476.08,293.67Z"/><path class="cls-7" d="M492.45,295.33a8.76,8.76,0,0,1-5.37,2.13c-1.61,0-2.45-.31-2.42-1.42.19-2,1.65-3.73,3.59-5.4,1.58-1.46,3.34-2.89,3.81-3.3a1.93,1.93,0,0,1,.82-.45c-.07-1.3-.39-2.73-1.43-2.76a5.5,5.5,0,0,0-2.88,1.72c-.1.12-.58.76-.92.8a1.49,1.49,0,0,1-1.33-1.66,2.1,2.1,0,0,1,.64-1.34c1.08-.95,4.28-2.8,5.5-2.9,1.05,0,2.85.54,3.67,6.35a29.63,29.63,0,0,1,.1,6,12.68,12.68,0,0,1-.86,3.61c-.2.37-1.18.54-1.55.55-.57,0-1.58-.09-1.54-1C492.34,295.94,492.39,295.64,492.45,295.33ZM489,292.85a3.07,3.07,0,0,0-.8,1.77c0,.48.25.71.75.71a5.08,5.08,0,0,0,2.84-1.52,4.21,4.21,0,0,1,.89-.43c.09-1.06.21-2.45.23-3.87A21.18,21.18,0,0,0,489,292.85Z"/><path class="cls-7" d="M498.43,285.83a1.08,1.08,0,0,1-.91-1.19c.08-.83.42-1.7,1.2-1.74.43,0,.85-.22,1.22-.23.2-2.62-.06-4.71.14-6.89.12-1.19.72-2.4,1.84-2.45s1.7,1.19,1.63,2.23-.13,4.47-.29,6.52c.44-.1.67-.39,1.21-.4.7,0,1.11.76,1.09,1.75a1.66,1.66,0,0,1-.81,1.45,10.59,10.59,0,0,1-1.47.36c-.06.77-.25,4.89-.22,6s-.16,4.78-.2,5.34a1.64,1.64,0,0,1-1.6,1.19c-1.07,0-1.83-.36-1.91-1s.13-3.68.24-5,.25-5.16.32-6.05A13.81,13.81,0,0,1,498.43,285.83Z"/><path class="cls-7" d="M525.24,290.47c.2-3-.11-5.34-.86-5.48-1.39.05-3.76,3.34-4,5.54a29.73,29.73,0,0,0-.11,4,13.53,13.53,0,0,1,.25,2.42,1.14,1.14,0,0,1-1.26,1c-1.5-.08-1.6-.28-1.8-.69-.25-1-.5-6.2-.54-7.84.07-3.35-.26-10.89.13-15.9.36-3.88,1.17-5.17,2.91-5.09,1,.12,1.53,1.25,1.44,2.63s-.43,3.24-.75,6.9c-.2,2.53-.12,5.77-.25,8.24.54-1.68,2.87-4.46,5.82-4.35,2,.26,3.07,3.46,2.64,9.21-.11,1.1-.66,4.06-.82,5.35-.09.85-.58,1.58-2.15,1.51-1-.14-1.52-.66-1.48-1.38C524.48,295.38,525,293.39,525.24,290.47Z"/><path class="cls-7" d="M539.74,277c1-2,1.64-4.2,2.45-4.16a2.94,2.94,0,0,1,1.8,2.61,17.21,17.21,0,0,1-1.53,3.81c-.77,1.18-2.27,2.31-2.81,2.29a1.47,1.47,0,0,1-1.37-1.57A11.33,11.33,0,0,1,539.74,277Z"/><path class="cls-7" d="M542.1,293.84c-.11,1.72.58,2.68,1,2.77s1.1-.29,2.05-1.05c.57-.48,1.36-1.3,2.25-1.95.57-.39.89-.58,1.32-.53.8.11,1.09.5,1,1.16-.19,1.2-2.39,2.45-3.7,3.19-.7.4-3.41,2-4.25,2-2.18-.34-3-3.11-2.81-5.31v0a1.7,1.7,0,0,1-.63,0c-.29-.05-.55-.61-.53-1,.09-1,.36-1.16,1.37-1.55,0-.25,0-.49.07-.75.45-4.47,2.37-7.9,3.32-7.92,3.57.56,5.61,3.79,5.58,5.28a3,3,0,0,1-1.41,2.83c-1,.58-4.09,1.91-4.67,2.29C542.13,293.49,542.12,293.66,542.1,293.84Zm.26-3.4c.64-.3,2.48-1,3-1.36a2.13,2.13,0,0,0-1.65-2.41C543.16,286.7,542.49,289.16,542.36,290.44Z"/><path class="cls-7" d="M558,300.16c0-.46.72-6.38.78-8s-.2-3.2-1-3.4c-.9,0-3,2-3.28,4.39-.24,3.23.5,5.52.41,7-.11.66-1.36.82-1.83.77a2.14,2.14,0,0,1-1.71-.92,39.26,39.26,0,0,1-.3-5.26c0-3.49-.33-5.75-.23-7.26a2.2,2.2,0,0,1,1.92-1.82c1.19.19,1.84.58,1.87,3.34,1-1.72,2.8-3.29,4.5-3.07a3.3,3.3,0,0,1,2.57,2.77,5.94,5.94,0,0,1,5.15-1.79c1.63.42,2.3,3.13,2.3,5.1,0,1.36-.09,3.69-.17,5.12s0,3-.08,3.88-.6,1.59-2.17,1.36-1.7-1-1.63-1.87c.16-1.88.59-5.41.74-7.11.12-1.49.26-3.57-.78-3.84s-1.65.26-3,1.47c0,.15-.09,4-.16,5.3s-.1,3-.17,3.86-.51,1.56-2,1.4S557.94,301,558,300.16Z"/><path class="cls-7" d="M583.09,303.78a6.86,6.86,0,0,1-5.28,1.05c-1.58-.34-2.4-.93-2.37-2.1.2-2.05,1.63-3.47,3.53-4.63,1.55-1,3.26-1.93,3.72-2.19a1.6,1.6,0,0,1,.8-.21c-.08-1.17-.42-2.45-1.43-2.73a4.22,4.22,0,0,0-2.81.8c-.12.1-.56.54-.89.5a1.9,1.9,0,0,1-1.32-1.78,1.27,1.27,0,0,1,.61-1,12.54,12.54,0,0,1,5.34-1c1,.25,2.82.91,3.68,6.21a25.92,25.92,0,0,1,.13,5.72,12.86,12.86,0,0,1-.86,3.63c-.2.37-1.16.33-1.53.25-.56-.13-1.54-.5-1.5-1.52Zm-3.34-3.34a2.45,2.45,0,0,0-.79,1.62.84.84,0,0,0,.74.92,3.78,3.78,0,0,0,2.79-.93c.48-.17.94-.31.87-.24.08-1.06.2-2.39.22-3.71A12.83,12.83,0,0,0,579.75,300.44Z"/><path class="cls-7" d="M591.15,283.71c.75.26,1.7,1,1.7,1.81s-.36,2.47-.56,4.63c-.11,1.79.34,7.87.31,9.81,0,2.56.59,6,.54,7s-.79,1.26-1.82,1-2-.77-2.08-1.66c0-1-.21-4.18-.16-7.24s-.66-8.52-.35-12.67C589,283.82,589.83,283.31,591.15,283.71Z"/><path class="cls-7" d="M597.38,285.8c.74.27,1.7,1,1.71,1.75s-.36,2.32-.54,4.37c-.11,1.72.36,7.66.32,9.59,0,2.55.59,6.07.54,7.09s-.8,1.29-1.82,1-2-.82-2.07-1.73c0-1.08-.21-4.27-.16-7.31s-.67-8.38-.38-12.31C595.22,285.81,596.06,285.38,597.38,285.8Z"/><path class="cls-7" d="M508.21,293c-.09,1.24.1,1.87,1.24,1.92a6.52,6.52,0,0,0,2.82-.92c.55-.31,1.51-1.54,2.45-1.56s1.43.61,1.41,1.14c-.37,2-5.15,3.44-7.65,3.49-3.41-.17-3.89-1.85-3.77-3.6.79-6.55,6.8-11.91,8.05-12.06.87,0,1.43.49,1.34,1.89-.1,1-.38,2-1.3,2.26C510.11,286.25,508.47,290.58,508.21,293Z"/><path class="cls-12" d="M406.92,303.49c-.7.52-1.35,1-1.92,1.31a21.78,21.78,0,0,1,1.24-4.19,2.51,2.51,0,0,0,0,.27,1.21,1.21,0,0,0,0,.19A3.85,3.85,0,0,0,406.92,303.49ZM420,294.07a3.16,3.16,0,0,0-2.61-.78,2.07,2.07,0,0,0-.43.1c-.51.17-1.4.59-4,1.87l-1.07.52a15.63,15.63,0,0,1-2.31,1l-.1,0a4.3,4.3,0,0,0-2.18,1.53,36.79,36.79,0,0,1,3.36-5.38,5,5,0,0,0,1-.19l.14,0a3.81,3.81,0,0,0,2.41-3.35v-.1a5.13,5.13,0,0,0,0-.87c0-.18,0-.37,0-.58a1.94,1.94,0,0,0,0-.24l0-.22a7.47,7.47,0,0,0-.36-1.64,3.48,3.48,0,0,0-1.8-2.06,3.7,3.7,0,0,0-2.94,0l-.08,0a11.65,11.65,0,0,0-3.82,3.19c-2.9,3.88-8.51,12.9-9.21,19.52,0,.05,0,.09,0,.14-.18,3.32,1,5.07,2.08,5.95s2.78,1.68,5.68,1l.12,0a25.84,25.84,0,0,0,8.88-4.94,3.64,3.64,0,0,0,4.27,2l.1,0a4.44,4.44,0,0,0,3.3-3.57c0-.06,0-.12,0-.19a8.72,8.72,0,0,0-.1-1.44,7.57,7.57,0,0,1-.09-1.51c.08-1,.29-2.52.58-4.12l.14-.79a12.69,12.69,0,0,0,.26-1.81s0-.06,0-.1A3.56,3.56,0,0,0,420,294.07Zm-6.28-8.48a.56.56,0,0,1,0,.12l0,0Z"/><path class="cls-12" d="M431.65,289.84a6.51,6.51,0,0,0-5.12-1.69,5.16,5.16,0,0,0-1.89,0l-.12,0a3.91,3.91,0,0,0-2.65,2.11,20.31,20.31,0,0,0-5,10.73.49.49,0,0,0,0,.12c-.15,2.82.53,4.92,2,6.25s3.4,1.67,5.9,1.23l.15,0a12.69,12.69,0,0,0,9.4-11c0-.06,0-.11,0-.16C434.57,293.34,433,291.05,431.65,289.84Z"/><path class="cls-12" d="M441.54,287a3.74,3.74,0,0,0-.9-.58c0-.21,0-.43,0-.62,0-.65,0-1.32,0-1.58a4,4,0,0,0-4.95-4.26l-.16,0a5.24,5.24,0,0,0-3.82,4.68,21.76,21.76,0,0,0,0,2.92c0,.34,0,.67,0,1a4.49,4.49,0,0,0-2.38,3.75.86.86,0,0,0,0,.16,3.64,3.64,0,0,0,1.19,2.82,3.39,3.39,0,0,0,1.09.66c0,.93-.07,1.87-.11,2.39-.09,1.33-.19,4.42-.18,5.15a1.84,1.84,0,0,0,0,.33,3.42,3.42,0,0,0,1.35,2.27,4.76,4.76,0,0,0,3.67.72l.13,0a4.75,4.75,0,0,0,3.77-3.82.88.88,0,0,0,0-.16c0-.67.12-4.32.14-5.27a.81.81,0,0,0,0-.16c0-.54,0-2.12.05-3.4l.05,0a4.46,4.46,0,0,0,2.25-3.68v-.1A4.1,4.1,0,0,0,441.54,287Z"/><path class="cls-12" d="M450.38,285.6a3.37,3.37,0,0,0-.9-.6c0-.26,0-.53,0-.77,0-.73,0-1.41,0-1.7a4.35,4.35,0,0,0-1.37-3.5,4.14,4.14,0,0,0-3.5-.92l-.17,0a5.21,5.21,0,0,0-3.89,4.76,22,22,0,0,0,0,3l0,1.1a4.52,4.52,0,0,0-2.38,3.79.76.76,0,0,0,0,.15,3.71,3.71,0,0,0,1.17,2.84,3.49,3.49,0,0,0,1.1.68c0,1-.07,2-.11,2.53-.1,1.35-.2,4.44-.18,5.15,0,.1,0,.21,0,.31.26,1.8,1.89,3.43,5,3l.12,0a4.67,4.67,0,0,0,3.84-3.78c0-.05,0-.1,0-.16,0-.65.12-4.3.14-5.27a.86.86,0,0,0,0-.16c0-.55,0-2.17.06-3.48h0a4.48,4.48,0,0,0,2.26-3.72.31.31,0,0,0,0-.1A4.18,4.18,0,0,0,450.38,285.6Z"/><path class="cls-12" d="M462.52,290.24c-1.15-6.91-4.3-8-6.75-7.7l-.17,0c-2.08.39-5.72,2.93-6.75,3.88l-.11.12a4.76,4.76,0,0,0-1.36,2.93.76.76,0,0,0,0,.15,4,4,0,0,0,1.25,3.14,4,4,0,0,0,.93.65c-1.62,1.6-3.43,3.87-3.67,6.64a1.27,1.27,0,0,0,0,.2,3.85,3.85,0,0,0,1.22,3,5.24,5.24,0,0,0,4.24,1h.07a12.73,12.73,0,0,0,3.84-1.2,4.62,4.62,0,0,0,2.68.45H458c.64-.08,2.77-.47,3.63-2.17l.07-.13a16,16,0,0,0,1-4.47A28.73,28.73,0,0,0,462.52,290.24ZM453.79,297h0v0Zm0,.4a.17.17,0,0,0,0,.07h0A.17.17,0,0,1,453.82,297.37Z"/><path class="cls-12" d="M482,292.49a4.23,4.23,0,0,0-3.17-1.17l-.21,0a4.84,4.84,0,0,0-2.53,1.16,4.62,4.62,0,0,1,1.72-2.29c1.29-.43,2.87-1.59,3.13-4.68,0,0,0,0,0-.08a4.4,4.4,0,0,0-1.15-3.49,3.9,3.9,0,0,0-3.1-1.08l-.44.06c-2.54.57-9.11,7.31-9.93,14.7,0,.05,0,.09,0,.14a5.57,5.57,0,0,0,1.42,4.42,6.53,6.53,0,0,0,5.19,1.65h.18c2.4-.26,9.2-2.23,9.91-6.32a2.58,2.58,0,0,0,0-.39A3.56,3.56,0,0,0,482,292.49Z"/><path class="cls-12" d="M494.77,288.09c-.86-5.7-3-8.56-6.43-8.47h-.19c-2.15.2-5.89,2.64-6.95,3.59l-.13.13a4.75,4.75,0,0,0-1.37,3,.71.71,0,0,0,0,.14,4.33,4.33,0,0,0,1.2,3.22,4.22,4.22,0,0,0,1.14.83c-1.67,1.54-3.6,3.79-3.85,6.66a1.41,1.41,0,0,0,0,.2,3.88,3.88,0,0,0,1.14,2.91,5.4,5.4,0,0,0,4.08,1.24h.07a12.69,12.69,0,0,0,3.84-.89,4.62,4.62,0,0,0,2.65.66H490c.66,0,2.9-.26,3.82-2a.83.83,0,0,0,.07-.13,15.53,15.53,0,0,0,1.05-4.46A32.09,32.09,0,0,0,494.77,288.09Zm-6,3.9-.16,0,0,0Zm-2.7,2.59v0Zm0,.48h0Z"/><path class="cls-12" d="M501.87,280.82c0-.51,0-1,0-1.47,0-.85,0-1.66.07-2a5.09,5.09,0,0,0-1.26-3.74,4.24,4.24,0,0,0-3-1.35h-.21c-2.34.12-4.1,2.09-4.37,4.9a31.73,31.73,0,0,0,0,3.5l0,1.35a4.38,4.38,0,0,0-2.4,3.87s0,.08,0,.13a4,4,0,0,0,1.06,2.88,3.55,3.55,0,0,0,1.18.84c0,1.18-.09,2.5-.14,3.14-.1,1.41-.2,4.49-.18,5.21,0,.1,0,.21,0,.31.21,1.51,1.54,3.28,4.58,3.3h.13a4.37,4.37,0,0,0,4.18-3.59,1,1,0,0,0,0-.17c0-.66.13-4.43.15-5.35v-.15c0-.58,0-2.3.07-3.7A4.36,4.36,0,0,0,504,285v-.1A4.36,4.36,0,0,0,501.87,280.82Z"/><path class="cls-12" d="M510.47,290.82h-.22a4.93,4.93,0,0,0-2.95,1.26c.53-1.34,1.29-2.44,1.82-2.59l-.07,0c1.12-.28,3-1.26,3.33-4.67v-.07a4.53,4.53,0,0,0-1.06-3.46,4,4,0,0,0-2.9-1.28,2.47,2.47,0,0,0-.47,0c-2.94.38-9.34,7.11-10.14,14.32,0,.05,0,.1,0,.14a5.93,5.93,0,0,0,1.35,4.43,6.84,6.84,0,0,0,5,2h.18c2.44-.07,9.36-1.57,10.08-5.78a1.69,1.69,0,0,0,0-.38A3.93,3.93,0,0,0,510.47,290.82Z"/><path class="cls-12" d="M521.79,280.34l-.26,0a7.28,7.28,0,0,0-2.89.52c0-.46,0-.92.06-1.34.17-2.2.34-3.69.48-4.89.08-.7.15-1.3.19-1.84a.22.22,0,0,1,0-.08c.16-2.95-1.45-5.19-3.9-5.44h-.19c-5-.18-5.46,5.42-5.64,7.53-.23,3.48-.12,8,0,11.58,0,1.71.08,3.18.07,4.21v.11a77.63,77.63,0,0,0,.7,8.3,2.82,2.82,0,0,0,.19.51c.95,1.89,2.56,2.12,4.12,2.18h.2A4,4,0,0,0,518,300.1a4.53,4.53,0,0,0,2.92,1.45l.27,0c2.74.08,4.67-1.48,4.91-4,0-.5.2-1.45.34-2.37.18-1.15.35-2.24.41-2.9C527.49,283,524.45,280.66,521.79,280.34Z"/><path class="cls-12" d="M537.6,271.39l-.42-.05c-2.47-.1-3.46,2.23-4.26,4.11-.21.5-.43,1-.66,1.49l-.26.44a9,9,0,0,0-1.43,3.43,1.48,1.48,0,0,0,0,.21,4.19,4.19,0,0,0,3.74,4.36l.31,0c2.3,0,4.5-2.62,5.1-3.55l.11-.2a18.49,18.49,0,0,0,1.76-4.69c0-.09,0-.18,0-.27C541.64,274.86,540.24,271.93,537.6,271.39Z"/><path class="cls-12" d="M545.46,291.57a7.57,7.57,0,0,0,.41-2.17v-.29c0-2.8-3-7.13-7.87-7.86a4,4,0,0,0-.49,0c-3.36.12-5.24,5.68-5.74,9.6a4,4,0,0,0-1.47,3,.45.45,0,0,1,0,.11,4,4,0,0,0,1.24,3c.41,2.84,2,5.52,5.06,6l.39,0c1.14,0,2.44-.55,5.34-2.26l.2-.12c1.81-1,4.56-2.63,4.92-5.13a1.07,1.07,0,0,0,0-.25A3.62,3.62,0,0,0,545.46,291.57Zm-11.91.72-.15,0Z"/><path class="cls-12" d="M566.36,292.68c0-3.06-1.19-6.86-4.39-7.65l-.24,0a8.64,8.64,0,0,0-4.59.62,5.81,5.81,0,0,0-2.9-1.49l-.19,0a5.79,5.79,0,0,0-3.67.87,4.81,4.81,0,0,0-2.49-1.05l-.2,0a4.85,4.85,0,0,0-4.79,4.21c0,.06,0,.11,0,.17a22,22,0,0,0,.11,2.94c.09,1.22.19,2.6.18,4.32a41.23,41.23,0,0,0,.43,5.8,1.9,1.9,0,0,0,.15.46,4.63,4.63,0,0,0,3.84,2.51h.12a5.07,5.07,0,0,0,3.33-.83,5.08,5.08,0,0,0,3,1.39h.15a4.6,4.6,0,0,0,3.53-.91l.08-.08a4.82,4.82,0,0,0,3.05,1.68H561a4.67,4.67,0,0,0,3.68-.84,4.17,4.17,0,0,0,1.54-3,.28.28,0,0,1,0-.09c0-.51,0-1.11,0-1.8s0-1.39,0-2.05C566.31,296.34,566.36,294,566.36,292.68Z"/><path class="cls-12" d="M583.59,296.48c-.85-4.88-2.67-7.51-5.74-8.22l-.15,0a14.36,14.36,0,0,0-7,1.37l-.19.12a4,4,0,0,0-1.81,3,.81.81,0,0,1,0,.16,4.56,4.56,0,0,0,2.17,4,8.4,8.4,0,0,0-3.62,5.95c0,.06,0,.13,0,.19,0,1.43.54,4,4.54,4.77h.07a10,10,0,0,0,3.85-.05,5,5,0,0,0,2.51,1.35h.08c1.49.29,3.54,0,4.44-1.67l.08-.15a15.8,15.8,0,0,0,1-4.48A27.21,27.21,0,0,0,583.59,296.48Zm-6.51,2.93a2.83,2.83,0,0,1,.77-.07h0A3.94,3.94,0,0,0,577.08,299.41ZM575,302v0Z"/><path class="cls-12" d="M589.85,304.47a37.44,37.44,0,0,1-.37-4.3c0-.91-.09-2.51-.2-4.36s-.24-4.22-.2-5.07c.08-1.08.21-2,.31-2.81s.17-1.28.19-1.78V286a4.92,4.92,0,0,0-3.56-4.32l-.11,0a4.22,4.22,0,0,0-3.71.47c-1.64,1.12-2,3.17-2.13,4.62a.17.17,0,0,0,0,.07,66,66,0,0,0,.25,8.54c.11,1.55.21,3,.22,4.06,0,2,.09,4,.16,5.43,0,.72.07,1.35.07,1.65v.15c0,.94.56,3.23,4.13,4.12l.09,0a4.25,4.25,0,0,0,3.52-.59,4,4,0,0,0,1.56-2.84c0-.06,0-.12,0-.18A19.77,19.77,0,0,0,589.85,304.47Z"/><path class="cls-12" d="M596,305.92a40.27,40.27,0,0,1-.37-4.3c0-.92-.09-2.61-.2-4.4s-.25-4-.21-4.8c.08-1,.2-1.92.29-2.63s.17-1.23.19-1.71v-.18c0-2.08-1.8-3.63-3.52-4.24l-.11,0a4.26,4.26,0,0,0-3.77.41c-1.63,1.09-2,3.05-2.1,4.43a.17.17,0,0,1,0,.07,62.27,62.27,0,0,0,.27,8.16c.11,1.55.22,3,.23,4.08,0,2,.08,4,.16,5.45,0,.75.06,1.39.06,1.71,0,0,0,.08,0,.13,0,.94.53,3.23,4.07,4.19l.08,0a4.22,4.22,0,0,0,3.54-.54,3.9,3.9,0,0,0,1.6-2.87c0-.06,0-.12,0-.18A20.93,20.93,0,0,0,596,305.92Z"/><path class="cls-7" d="M418,299.07c-.28,1.52-.52,3.16-.63,4.44s.23,2.37.19,3a1.7,1.7,0,0,1-1.24,1.23c-.47.1-1,.14-1.29-.62a6.3,6.3,0,0,1-.1-2.12,26.49,26.49,0,0,1,.33-2.66c-4.43,4.55-8.65,7.41-12.27,8.44-3.26.77-4.56-1-4.39-4.13.58-5.4,5.2-13.5,8.66-18.13a8.85,8.85,0,0,1,2.7-2.33.8.8,0,0,1,1.18.45,7.34,7.34,0,0,1,.25,1.33c0,.54.08,1,.07,1.15s-.19.88-.56,1a1.64,1.64,0,0,1-.58.09,2.77,2.77,0,0,0-.57,0,2.33,2.33,0,0,0-1.15.88c-2.34,3-6,8.8-6.56,14.9-.12,2.06.69,2.61,2.06,2.3,2.11-.62,6.85-4,10-7.69a8,8,0,0,0,.53-.63,12.93,12.93,0,0,0-2,1,11.62,11.62,0,0,1-2.5,1.32,1,1,0,0,1-1.26-1.1,2.34,2.34,0,0,1,1.28-1.75,15.93,15.93,0,0,0,2.87-1.18c1.81-.89,4.21-2.09,4.71-2.25.23,0,.6.22.58.75A18,18,0,0,1,418,299.07Z"/><path class="cls-7" d="M424,292.08c.41-.4.34-1,1.21-1.2s1,.14,1.76,0c1.6-.26,4.93,1.23,4.69,6.42a10,10,0,0,1-7.3,8.65c-2.84.5-4.93-.28-4.7-4.63A17.68,17.68,0,0,1,424,292.08Zm4,6.54c.16-2.72-.7-5.13-1.64-5.05-1,.32-2.73,3.61-3,6.82-.17,2.66.54,3.42,1.57,3.27C426.12,303.35,427.75,301.37,428,298.62Z"/><path class="cls-7" d="M433.08,293.5a.81.81,0,0,1-.93-.86A1.71,1.71,0,0,1,433.3,291c.44-.09.85-.34,1.22-.42.14-2.22-.17-3.83,0-5.57a2.53,2.53,0,0,1,1.77-2.29,1.27,1.27,0,0,1,1.68,1.39c-.05.84,0,3.63-.15,5.38a6.06,6.06,0,0,1,1.2-.56c.7-.1,1.13.44,1.11,1.3a1.7,1.7,0,0,1-.77,1.39,12.43,12.43,0,0,1-1.45.57c-.05.68-.17,4.39-.12,5.41s-.1,4.58-.13,5.14a2,2,0,0,1-1.58,1.45c-1.07.16-1.82-.06-1.9-.66s.08-3.61.17-4.9.17-4.69.22-5.47C434.08,293.25,433.58,293.41,433.08,293.5Z"/><path class="cls-7" d="M441.92,292a.86.86,0,0,1-.93-.92,1.73,1.73,0,0,1,1.15-1.69c.44-.08.85-.33,1.22-.4.15-2.3-.16-4,0-5.83a2.55,2.55,0,0,1,1.77-2.35,1.34,1.34,0,0,1,1.68,1.53c-.06.88,0,3.8-.17,5.62.44-.16.66-.45,1.19-.55.7-.08,1.13.49,1.11,1.38a1.72,1.72,0,0,1-.78,1.41,11.19,11.19,0,0,1-1.44.55c0,.7-.17,4.47-.13,5.51s-.1,4.59-.13,5.14a2,2,0,0,1-1.58,1.41c-1.06.13-1.81-.11-1.89-.7s.08-3.6.17-4.89.17-4.76.23-5.56C442.91,291.78,442.42,291.92,441.92,292Z"/><path class="cls-7" d="M456.29,298.92a9.52,9.52,0,0,1-5.27,2.56c-1.6.18-2.42-.08-2.41-1.18.17-1.94,1.59-3.75,3.49-5.51,1.53-1.52,3.24-3,3.71-3.44a2.2,2.2,0,0,1,.8-.5c-.08-1.21-.42-2.49-1.45-2.41a6.18,6.18,0,0,0-2.82,1.87c-.09.11-.56.75-.89.82a1.28,1.28,0,0,1-1.34-1.39,2,2,0,0,1,.61-1.28,18.49,18.49,0,0,1,5.39-3.2c1-.13,2.82.12,3.71,5.48a26.55,26.55,0,0,1,.17,5.71,12.79,12.79,0,0,1-.81,3.58c-.19.38-1.15.64-1.52.68-.56.06-1.56.05-1.53-.88C456.18,299.52,456.24,299.23,456.29,298.92Zm-3.39-2.09a3.05,3.05,0,0,0-.77,1.77c0,.47.25.67.75.62a5.41,5.41,0,0,0,2.78-1.72,5,5,0,0,1,.87-.5c.08-1,.18-2.35.19-3.71A23.12,23.12,0,0,0,452.9,296.83Z"/><path class="cls-7" d="M472.49,295.18c-.08,1.21.12,1.8,1.24,1.75a6.9,6.9,0,0,0,2.77-1.14c.54-.34,1.47-1.62,2.4-1.72s1.41.46,1.39,1c-.33,1.94-5,3.79-7.49,4.05-3.37.14-3.86-1.46-3.76-3.16.71-6.38,6.58-12.05,7.8-12.32.86-.05,1.42.32,1.34,1.68-.08,1-.35,2-1.26,2.3C474.29,288.55,472.71,292.85,472.49,295.18Z"/><path class="cls-7" d="M488.55,296.65a8.68,8.68,0,0,1-5.24,2.14c-1.59,0-2.41-.28-2.39-1.37.16-1.93,1.57-3.67,3.46-5.33,1.53-1.45,3.24-2.86,3.7-3.27a2.06,2.06,0,0,1,.8-.45c-.08-1.27-.41-2.67-1.42-2.69a5.47,5.47,0,0,0-2.82,1.72c-.09.11-.56.75-.89.79a1.46,1.46,0,0,1-1.32-1.61,2.11,2.11,0,0,1,.62-1.32c1-.95,4.17-2.78,5.36-2.9,1,0,2.79.5,3.65,6.19a29.11,29.11,0,0,1,.17,5.9,12.61,12.61,0,0,1-.81,3.55c-.19.36-1.15.54-1.51.56-.56,0-1.55-.08-1.53-1C488.44,297.25,488.49,297,488.55,296.65Zm-3.37-2.39a3,3,0,0,0-.77,1.74c0,.46.25.69.75.68a4.92,4.92,0,0,0,2.76-1.51,4.35,4.35,0,0,1,.87-.44c.08-1,.18-2.4.19-3.79A20,20,0,0,0,485.18,294.26Z"/><path class="cls-7" d="M494.31,287.28a1.05,1.05,0,0,1-.9-1.16c.07-.81.39-1.67,1.15-1.72.43,0,.84-.22,1.2-.24.17-2.56-.11-4.61.06-6.74.11-1.17.69-2.36,1.78-2.42s1.68,1.15,1.63,2.16-.09,4.38-.23,6.39c.43-.1.65-.39,1.18-.4.69,0,1.1.74,1.09,1.7a1.62,1.62,0,0,1-.78,1.43,10.09,10.09,0,0,1-1.44.38c-.05.75-.19,4.78-.15,5.87s-.1,4.68-.14,5.23a1.61,1.61,0,0,1-1.56,1.18c-1.05,0-1.79-.34-1.88-.93s.09-3.61.18-4.95.2-5.05.26-5.92C495.29,287.19,494.8,287.27,494.31,287.28Z"/><path class="cls-7" d="M520.63,291.56c.17-2.91-.17-5.23-.9-5.36-1.36.06-3.65,3.3-3.9,5.46a27.85,27.85,0,0,0-.07,3.91,14.12,14.12,0,0,1,.27,2.37,1.12,1.12,0,0,1-1.22,1c-1.48-.06-1.57-.26-1.78-.66-.25-.94-.55-6.07-.6-7.68,0-3.28-.37-10.67,0-15.58.32-3.81,1.1-5.08,2.81-5,1,.11,1.51,1.22,1.43,2.57s-.39,3.17-.67,6.76c-.17,2.48-.06,5.66-.16,8.08.52-1.65,2.77-4.4,5.66-4.32,2,.23,3,3.36,2.68,9-.09,1.07-.61,4-.75,5.25-.08.84-.55,1.55-2.09,1.5-1-.13-1.5-.63-1.47-1.34C519.93,296.38,520.4,294.42,520.63,291.56Z"/><path class="cls-7" d="M534.7,278.19c1-1.95,1.57-4.14,2.36-4.1a2.87,2.87,0,0,1,1.79,2.54,16.8,16.8,0,0,1-1.47,3.75c-.73,1.16-2.2,2.28-2.72,2.27a1.44,1.44,0,0,1-1.36-1.52A11.25,11.25,0,0,1,534.7,278.19Z"/><path class="cls-7" d="M537.19,294.69c-.1,1.69.59,2.62,1,2.7s1.08-.3,2-1.05c.55-.47,1.32-1.29,2.19-1.93a1.93,1.93,0,0,1,1.28-.54c.78.1,1.07.48,1,1.13-.18,1.18-2.32,2.42-3.6,3.16-.68.4-3.32,2-4.14,2-2.14-.31-2.93-3-2.81-5.18v0a1.53,1.53,0,0,1-.61.05c-.29-.05-.55-.59-.53-1,.08-.95.35-1.14,1.33-1.52,0-.25,0-.49,0-.74.4-4.39,2.26-7.77,3.18-7.8,3.51.52,5.54,3.66,5.53,5.12a3,3,0,0,1-1.36,2.79c-1,.58-4,1.91-4.55,2.28C537.21,294.34,537.2,294.51,537.19,294.69Zm.21-3.33c.62-.31,2.43-1.05,3-1.37a2.09,2.09,0,0,0-1.64-2.35C538.15,287.68,537.52,290.1,537.4,291.36Z"/><path class="cls-7" d="M552.82,300.72c0-.45.64-6.25.68-7.83,0-1.42-.22-3.13-1.06-3.32-.89,0-2.91,2-3.17,4.34-.2,3.17.55,5.4.47,6.88-.09.65-1.32.82-1.78.78a2.13,2.13,0,0,1-1.69-.89,40.84,40.84,0,0,1-.35-5.15c0-3.42-.38-5.63-.29-7.11a2.13,2.13,0,0,1,1.86-1.8c1.17.17,1.8.54,1.86,3.25,1-1.69,2.72-3.25,4.39-3.06a3.25,3.25,0,0,1,2.54,2.69,5.82,5.82,0,0,1,5-1.8c1.6.39,2.29,3,2.31,5,0,1.33-.06,3.61-.12,5s0,2.94,0,3.8-.58,1.57-2.11,1.36-1.68-1-1.62-1.82c.14-1.85.52-5.31.65-7,.11-1.46.22-3.5-.8-3.75s-1.62.27-2.89,1.47c0,.15-.05,3.89-.11,5.2s-.06,2.93-.12,3.78-.49,1.54-2,1.39S552.77,301.54,552.82,300.72Z"/><path class="cls-7" d="M577.45,304a6.71,6.71,0,0,1-5.16,1.09c-1.55-.32-2.36-.89-2.34-2,.17-2,1.56-3.41,3.41-4.57,1.5-1,3.17-1.92,3.62-2.18a1.55,1.55,0,0,1,.78-.22c-.09-1.14-.44-2.4-1.43-2.66a4.09,4.09,0,0,0-2.75.82c-.11.09-.54.53-.86.49a1.84,1.84,0,0,1-1.31-1.73,1.24,1.24,0,0,1,.59-1,12.16,12.16,0,0,1,5.22-1.08c1,.24,2.77.87,3.67,6.06a25,25,0,0,1,.18,5.59,12.45,12.45,0,0,1-.81,3.57c-.19.36-1.13.33-1.49.27-.55-.13-1.52-.48-1.48-1.48C577.34,304.63,577.4,304.33,577.45,304Zm-3.3-3.23a2.33,2.33,0,0,0-.76,1.6.82.82,0,0,0,.73.88,3.68,3.68,0,0,0,2.72-.94,3.26,3.26,0,0,1,.85-.24c.08-1,.18-2.34.18-3.64A12.83,12.83,0,0,0,574.15,300.78Z"/><path class="cls-7" d="M585.15,284.26c.73.25,1.67.93,1.69,1.76s-.34,2.43-.51,4.54c-.09,1.76.41,7.72.4,9.61,0,2.51.64,5.9.6,6.87s-.76,1.25-1.77,1-2-.73-2-1.6c0-1-.25-4.1-.24-7.1s-.72-8.34-.47-12.42C583,284.39,583.85,283.89,585.15,284.26Z"/><path class="cls-7" d="M591.27,286.25c.74.26,1.68.93,1.7,1.7s-.33,2.28-.49,4.29c-.08,1.68.43,7.5.41,9.39,0,2.5.64,5.95.6,6.94s-.76,1.27-1.77,1-2-.78-2.05-1.68c0-1.05-.24-4.18-.23-7.15s-.74-8.21-.49-12.07C589.16,286.29,590,285.85,591.27,286.25Z"/><path class="cls-7" d="M504,294.18c-.08,1.22.11,1.83,1.23,1.87a6.48,6.48,0,0,0,2.75-.94c.54-.3,1.47-1.51,2.39-1.55s1.4.58,1.39,1.1c-.34,1.94-5,3.43-7.46,3.5-3.34-.13-3.83-1.77-3.73-3.49.71-6.42,6.55-11.74,7.77-11.9.85,0,1.4.47,1.33,1.85-.09,1-.36,2-1.26,2.22C505.76,287.57,504.19,291.84,504,294.18Z"/><path class="cls-12" d="M606.6,307.21a5.23,5.23,0,0,0-.68-.79,4.1,4.1,0,0,0,.74-2.24c0-.4.09-1.09.16-1.88.15-1.64.35-3.87.48-6s.35-3.75.49-4.81c.06-.49.1-.78.11-1a4.51,4.51,0,0,0-9-.78c0,.49,0,1.52,0,3.31s0,3.86,0,4.67c-.07,1-.15,2.92-.21,4.45,0,.94-.06,1.82-.08,2.07a2.67,2.67,0,0,0,.45,1.87,4.14,4.14,0,0,0-2.09,3.21,3.87,3.87,0,0,0,.9,3,5.88,5.88,0,0,0,4.37,1.73c2.63.14,5.4-1,5.64-3.36A5,5,0,0,0,606.6,307.21Z"/><path class="cls-7" d="M603.51,288a2.11,2.11,0,0,1,2.06,2.35c0,.53-.43,3-.6,5.84-.19,3.12-.55,6.57-.65,7.83-.06.9-.48,1.65-1.51,1.63a1.67,1.67,0,0,1-1.85-1.8c0-.73.1-4.34.22-6s0-7,.06-8A2.4,2.4,0,0,1,603.51,288Zm-1,19.39a3.25,3.25,0,0,1,2.71,3c-.13.71-1.47,1.21-2.86,1.13-1.89-.1-2.88-.71-2.76-1.92C599.73,308.68,601.45,307.31,602.56,307.38Z"/><g class="cls-13"><path class="cls-1" d="M778.27,100.32q-3.22,0-6.91,6.2h12.88Q781.2,100.33,778.27,100.32Z"/><path class="cls-1" d="M686.92,102q-8-2.31-17.73-4.45a75.48,75.48,0,0,0-15.11-2.13,8.74,8.74,0,0,0-4.36.89c-2.9,2.19-4.36,4.21-4.36,6a5.46,5.46,0,0,0,2.3,4.16H702.1Q693.73,104,686.92,102Z"/><path class="cls-1" d="M494.73,68.45Q492.47,59.6,487,57.74q-7.38-2.58-11.74-2.58a19.72,19.72,0,0,0-11.64,4l2.6,47.36h29.85A147.32,147.32,0,0,0,497,89.74,86.87,86.87,0,0,0,494.73,68.45Z"/><path class="cls-1" d="M579.49,105.65q0-8.7,6.93-13.33a28.38,28.38,0,0,0-9.64,3.11,33.12,33.12,0,0,0-8.13,5.87,26.46,26.46,0,0,0-4.1,5.22h15C579.51,106.23,579.49,106,579.49,105.65Z"/><path class="cls-7" d="M468.1,140.06q15-6.5,20-12.85t6.09-10.53q.88-2,1.82-9.69c0-.16,0-.32.05-.47H466.26Z"/><path class="cls-7" d="M675.23,114.54q17.07,1.88,27.61,8t15.24,14.27a37.91,37.91,0,0,1,2.31,4.71c0-.2,0-.42,0-.62q-.4-6.09-1.65-13.82l-.32-15.63c-.08.1-.16.16-.21.16q-2.67-1-12.93-4.13l-3.14-1H647.66a21.74,21.74,0,0,0,6.42,3.36A96.85,96.85,0,0,0,675.23,114.54Z"/><path class="cls-7" d="M627.1,140.28q3.85,1.47,11.29,3.47a100.83,100.83,0,0,1,11.33,3.6,51,51,0,0,0,17.87,3.2,47.64,47.64,0,0,0,10.84-1.2q5.16-1.2,5.52-2,0-2.31-7.87-4.58a118.19,118.19,0,0,0-17.56-3.51,94.44,94.44,0,0,1-22.18-5.38,53.72,53.72,0,0,1-11-5.54l.22,11.3C626.08,139.86,626.57,140.08,627.1,140.28Z"/><path class="cls-7" d="M561.44,116.68q0,8.08,7.65,13.15a24.3,24.3,0,0,0,13.69,4.54,25.06,25.06,0,0,0,3.64-.36V115.08a7.51,7.51,0,0,1-4.26-1.25c-1.65-1.31-2.52-3.76-2.64-7.31h-15a24.65,24.65,0,0,0-1.19,2.2A18.48,18.48,0,0,0,561.44,116.68Z"/><path class="cls-7" d="M475.3,176.42a57.26,57.26,0,0,0,24.32-8.63,65.41,65.41,0,0,0,18.71-18.27,82.34,82.34,0,0,0,5.9-10.08c-.2-2.08-.3-4.18-.3-6.32q0-15.45,6.45-26.6H496.11c0,.15,0,.31-.05.47q-.93,7.73-1.82,9.69-1.07,4.17-6.09,10.53t-20,12.85l-1.84-33.54H429.91L438.23,183Z"/><path class="cls-7" d="M785.56,109.48q9.6,24.43,9.6,59.29,0,8.35-.18,12.8l37.16-2.22q2-12.89,3-21.11a133.68,133.68,0,0,0,1-15.69q0-14.15-4.71-33.07c-.24-1-.53-2-.87-3H784.24C784.67,107.41,785.11,108.39,785.56,109.48Z"/><path class="cls-7" d="M720.75,107a24.11,24.11,0,0,1-2.37,4.46l.32,15.63q1.24,7.72,1.65,13.82c0,.2,0,.42,0,.62a31.56,31.56,0,0,1,2.4,12A26.9,26.9,0,0,1,721.1,163c.06,1.9.11,3.79.18,5.64a112,112,0,0,0,.89,12.09l43.65-5.07q-1.61-21.06-1.6-34.75,0-6.76.4-11.74a72.71,72.71,0,0,1,1.24-9,38.74,38.74,0,0,1,2.18-7.11,61,61,0,0,1,3.32-6.6H721Z"/><path class="cls-7" d="M720.39,141.52a37.91,37.91,0,0,0-2.31-4.71q-4.71-8.13-15.24-14.27t-27.61-8a96.85,96.85,0,0,1-21.15-4.66,21.74,21.74,0,0,1-6.42-3.36H625l0,3.13a70.16,70.16,0,0,1,.71,10.49,58.71,58.71,0,0,1-.36,7.65v.55a53.72,53.72,0,0,0,11,5.54,94.44,94.44,0,0,0,22.18,5.38,118.19,118.19,0,0,1,17.56,3.51q7.86,2.26,7.87,4.58-.36.79-5.52,2a47.64,47.64,0,0,1-10.84,1.2,51,51,0,0,1-17.87-3.2,100.83,100.83,0,0,0-11.33-3.6q-7.42-2-11.29-3.47c-.53-.2-1-.42-1.51-.64l.71,35.84c6.05,1.94,11.81,3.66,17.24,5.16q9.19,2.54,19.25,4.27a107.77,107.77,0,0,0,18.05,1.73q29.24,0,39.55-21.87c.26-.57.5-1.15.71-1.73-.07-2.85-.14-5.72-.17-8.67C720.81,149.69,720.63,145.42,720.39,141.52Z"/><path class="cls-7" d="M718.17,111.61c.05,0,.13-.06.21-.16l-.1-4.93H702.1l3.14,1Q715.5,110.63,718.17,111.61Z"/><path class="cls-7" d="M720.39,141.52c.24,3.9.42,8.17.54,12.85,0,2.95.1,5.82.17,8.67a26.9,26.9,0,0,0,1.69-9.56A31.56,31.56,0,0,0,720.39,141.52Z"/><path class="cls-7" d="M720.75,107l.21-.47h-2.68l.1,4.93A24.11,24.11,0,0,0,720.75,107Z"/><path class="cls-7" d="M604.56,168.41q2.31-4.8,5.87-11.6t6.89-13.29q3.33-6.48,3.33-7.11a18.53,18.53,0,0,0,4.94,3.23l-.22-11.3a48.74,48.74,0,0,1-8-6.6,26.56,26.56,0,0,1-7.51-15.22H579.52c.12,3.55,1,6,2.64,7.31a7.51,7.51,0,0,0,4.26,1.25V134a25.06,25.06,0,0,1-3.64.36,24.3,24.3,0,0,1-13.69-4.54q-7.65-5.06-7.65-13.15a18.48,18.48,0,0,1,1.92-8,24.65,24.65,0,0,1,1.19-2.2H533.66a103.58,103.58,0,0,1-3.46,17.53,93,93,0,0,1-6,15.39,62,62,0,0,0,4.14,17.28,43.53,43.53,0,0,0,12.36,17.74,38.37,38.37,0,0,0,11.6,6.22A43.85,43.85,0,0,0,566.69,183a51.6,51.6,0,0,0,19.73-4v5.43l40-2.14-.13-6.8-2.36-.75Z"/><path class="cls-7" d="M533.66,106.52h-3.28q-6.43,11.15-6.45,26.6c0,2.14.1,4.24.3,6.32a93,93,0,0,0,6-15.39A103.58,103.58,0,0,0,533.66,106.52Z"/><path class="cls-7" d="M620.65,136.41q0,.63-3.33,7.11t-6.89,13.29q-3.55,6.81-5.87,11.6l19.38,6.32,2.36.75-.71-35.84A18.53,18.53,0,0,1,620.65,136.41Z"/><path class="cls-7" d="M625.37,128.34v-.55a58.71,58.71,0,0,0,.36-7.65,70.16,70.16,0,0,0-.71-10.49l0-3.13H609.85a26.56,26.56,0,0,0,7.51,15.22A48.74,48.74,0,0,0,625.37,128.34Z"/><rect x="428.04" y="101.99" width="405.44" height="6.69"/><circle class="cls-8" cx="626.43" cy="104.95" r="11.24"/></g><circle class="cls-8" cx="626.43" cy="104.95" r="11.24"/></g></g></svg>